<svg width="390" height="844" viewBox="0 0 390 844" fill="none" xmlns="http://www.w3.org/2000/svg">
<g clip-path="url(#clip0_5059_384)">
<rect width="390" height="844" rx="30" fill="#FBFBFB"/>
<path d="M54.2666 26.7231C54.9085 26.7231 55.5173 26.8421 56.0928 27.0801C56.6683 27.3125 57.1774 27.6777 57.6201 28.1758C58.0684 28.6683 58.4198 29.3019 58.6743 30.0767C58.9289 30.8459 59.0562 31.7728 59.0562 32.8574V32.874C59.0562 34.2188 58.8625 35.3698 58.4751 36.3271C58.0877 37.2845 57.5316 38.0205 56.8066 38.5352C56.0872 39.0443 55.2267 39.2988 54.2251 39.2988C53.4891 39.2988 52.825 39.166 52.2329 38.9004C51.6463 38.6292 51.1593 38.2585 50.772 37.7881C50.3901 37.3122 50.1328 36.7699 50 36.1611L49.9834 36.0698H52.0835L52.1167 36.1528C52.2218 36.4295 52.3713 36.673 52.5649 36.8833C52.7642 37.0936 53.0021 37.2568 53.2788 37.373C53.561 37.4837 53.8765 37.5391 54.2251 37.5391C54.856 37.5391 55.3706 37.3537 55.769 36.9829C56.173 36.6066 56.4746 36.1058 56.6738 35.4805C56.8786 34.8496 56.9948 34.1523 57.0225 33.3887C57.028 33.3057 57.0308 33.2254 57.0308 33.1479C57.0308 33.0649 57.0308 32.9847 57.0308 32.9072L56.6572 30.9067C56.6572 30.453 56.5521 30.0407 56.3418 29.6699C56.1315 29.2992 55.8465 29.0059 55.4868 28.79C55.1326 28.5742 54.7314 28.4663 54.2832 28.4663C53.8516 28.4663 53.4559 28.5715 53.0962 28.7817C52.7365 28.992 52.4487 29.2798 52.2329 29.645C52.0171 30.0047 51.9092 30.4087 51.9092 30.8569V30.8735C51.9092 31.3384 52.0116 31.7507 52.2163 32.1104C52.4211 32.4645 52.7005 32.744 53.0547 32.9487C53.4089 33.1535 53.8128 33.2559 54.2666 33.2559C54.7204 33.2559 55.1271 33.1562 55.4868 32.957C55.8465 32.7578 56.1315 32.4811 56.3418 32.127C56.5521 31.7728 56.6572 31.3716 56.6572 30.9233V30.9067H57.1553V33.1147H56.8647C56.7209 33.4302 56.5078 33.7235 56.2256 33.9946C55.9434 34.2658 55.5947 34.4844 55.1797 34.6504C54.7702 34.8164 54.2887 34.8994 53.7354 34.8994C52.9717 34.8994 52.2965 34.7279 51.71 34.3848C51.1234 34.0417 50.6613 33.5713 50.3237 32.9736C49.9917 32.376 49.8257 31.7008 49.8257 30.9482V30.9316C49.8257 30.1182 50.0138 29.396 50.3901 28.7651C50.772 28.1287 51.2977 27.6307 51.9673 27.271C52.6424 26.9058 53.4089 26.7231 54.2666 26.7231ZM62.8247 37.3896C62.4484 37.3896 62.133 37.2651 61.8784 37.0161C61.6294 36.7616 61.5049 36.4517 61.5049 36.0864C61.5049 35.7157 61.6294 35.4058 61.8784 35.1567C62.133 34.9022 62.4484 34.7749 62.8247 34.7749C63.2065 34.7749 63.522 34.9022 63.771 35.1567C64.02 35.4058 64.1445 35.7157 64.1445 36.0864C64.1445 36.4517 64.02 36.7616 63.771 37.0161C63.522 37.2651 63.2065 37.3896 62.8247 37.3896ZM62.8247 31.2305C62.4484 31.2305 62.133 31.106 61.8784 30.8569C61.6294 30.6024 61.5049 30.2925 61.5049 29.9272C61.5049 29.5565 61.6294 29.2466 61.8784 28.9976C62.133 28.743 62.4484 28.6157 62.8247 28.6157C63.2065 28.6157 63.522 28.743 63.771 28.9976C64.02 29.2466 64.1445 29.5565 64.1445 29.9272C64.1445 30.2925 64.02 30.6024 63.771 30.8569C63.522 31.106 63.2065 31.2305 62.8247 31.2305ZM72.4038 39V36.7007H66.5435V34.9492C66.8589 34.4124 67.1743 33.8729 67.4897 33.3306C67.8107 32.7882 68.1344 32.2487 68.4609 31.7119C68.793 31.1696 69.1222 30.6356 69.4487 30.1099C69.7808 29.5786 70.11 29.0557 70.4365 28.541C70.7686 28.0208 71.1006 27.5145 71.4326 27.022H74.4458V34.9326H76.0645V36.7007H74.4458V39H72.4038ZM68.5356 34.9824H72.437V28.7319H72.3125C72.069 29.1082 71.8172 29.4956 71.5571 29.894C71.3026 30.2925 71.0452 30.6992 70.7852 31.1143C70.5251 31.5293 70.2677 31.9471 70.0132 32.3677C69.7586 32.7827 69.5068 33.2005 69.2578 33.6211C69.0088 34.0361 68.7681 34.4484 68.5356 34.8579V34.9824ZM81.02 39V29.1304H80.8706L77.8906 31.2305V29.2217L81.02 27.022H83.1533V39H81.02Z" fill="black"/>
<path fill-rule="evenodd" clip-rule="evenodd" d="M303.365 27.5329C303.365 26.8999 302.887 26.3867 302.298 26.3867H301.232C300.643 26.3867 300.165 26.8999 300.165 27.5329V37.4669C300.165 38.0999 300.643 38.6131 301.232 38.6131H302.298C302.887 38.6131 303.365 38.0999 303.365 37.4669V27.5329ZM295.931 28.832H296.998C297.587 28.832 298.064 29.3575 298.064 30.0057V37.4394C298.064 38.0876 297.587 38.6131 296.998 38.6131H295.931C295.342 38.6131 294.864 38.0876 294.864 37.4394V30.0057C294.864 29.3575 295.342 28.832 295.931 28.832ZM291.599 31.481H290.532C289.943 31.481 289.466 32.0132 289.466 32.6697V37.4244C289.466 38.0809 289.943 38.6131 290.532 38.6131H291.599C292.188 38.6131 292.666 38.0809 292.666 37.4244V32.6697C292.666 32.0132 292.188 31.481 291.599 31.481ZM286.298 33.9263H285.232C284.643 33.9263 284.165 34.4509 284.165 35.098V37.4414C284.165 38.0885 284.643 38.6131 285.232 38.6131H286.298C286.887 38.6131 287.365 38.0885 287.365 37.4414V35.098C287.365 34.4509 286.887 33.9263 286.298 33.9263Z" fill="black"/>
<path fill-rule="evenodd" clip-rule="evenodd" d="M318.937 28.8022C321.424 28.8023 323.816 29.7244 325.618 31.3779C325.754 31.5055 325.971 31.5039 326.105 31.3743L327.402 30.1108C327.47 30.045 327.507 29.956 327.507 29.8633C327.506 29.7706 327.468 29.682 327.399 29.617C322.668 25.2423 315.204 25.2423 310.473 29.617C310.405 29.6819 310.366 29.7705 310.365 29.8632C310.365 29.9559 310.402 30.045 310.47 30.1108L311.768 31.3743C311.901 31.5041 312.119 31.5057 312.254 31.3779C314.057 29.7243 316.449 28.8022 318.937 28.8022ZM318.933 33.0225C320.291 33.0224 321.599 33.5342 322.606 34.4583C322.742 34.5894 322.956 34.5866 323.089 34.4519L324.376 33.1326C324.444 33.0634 324.481 32.9695 324.48 32.8719C324.479 32.7744 324.44 32.6813 324.371 32.6135C321.307 29.7227 316.562 29.7227 313.498 32.6135C313.429 32.6813 313.39 32.7744 313.389 32.872C313.388 32.9696 313.426 33.0635 313.493 33.1326L314.78 34.4519C314.913 34.5866 315.127 34.5894 315.263 34.4583C316.269 33.5348 317.577 33.0231 318.933 33.0225ZM321.458 35.816C321.46 35.9214 321.422 36.023 321.355 36.0968L319.179 38.5515C319.115 38.6236 319.028 38.6642 318.937 38.6642C318.846 38.6642 318.759 38.6236 318.695 38.5515L316.518 36.0968C316.451 36.0229 316.414 35.9213 316.416 35.816C316.418 35.7106 316.459 35.6108 316.529 35.5402C317.919 34.2263 319.955 34.2263 321.345 35.5402C321.415 35.6109 321.456 35.7107 321.458 35.816Z" fill="black"/>
<rect opacity="0.35" x="335.007" y="26.5" width="24" height="12" rx="3.8" stroke="black"/>
<path opacity="0.4" d="M360.507 30.7812V34.8567C361.312 34.5116 361.835 33.7086 361.835 32.819C361.835 31.9294 361.312 31.1264 360.507 30.7812Z" fill="black"/>
<rect x="336.507" y="28" width="21" height="9" rx="2.5" fill="black"/>
<rect width="144" height="5" rx="2.5" transform="matrix(-1 0 0 1 267 831)" fill="black"/>
<rect x="24" y="640" width="342" height="50" rx="20" fill="#70D6FF"/>
<path d="M169.044 671V658.636H171.658V668.845H176.959V671H169.044ZM189.67 664.818C189.67 666.166 189.415 667.313 188.903 668.259C188.396 669.205 187.704 669.927 186.827 670.426C185.953 670.922 184.971 671.169 183.881 671.169C182.782 671.169 181.796 670.92 180.923 670.42C180.049 669.921 179.359 669.199 178.852 668.253C178.345 667.307 178.091 666.162 178.091 664.818C178.091 663.47 178.345 662.323 178.852 661.377C179.359 660.431 180.049 659.711 180.923 659.216C181.796 658.717 182.782 658.467 183.881 658.467C184.971 658.467 185.953 658.717 186.827 659.216C187.704 659.711 188.396 660.431 188.903 661.377C189.415 662.323 189.67 663.47 189.67 664.818ZM187.02 664.818C187.02 663.945 186.889 663.208 186.627 662.609C186.37 662.009 186.006 661.554 185.535 661.244C185.064 660.934 184.513 660.779 183.881 660.779C183.249 660.779 182.697 660.934 182.227 661.244C181.756 661.554 181.389 662.009 181.128 662.609C180.87 663.208 180.741 663.945 180.741 664.818C180.741 665.692 180.87 666.428 181.128 667.028C181.389 667.627 181.756 668.082 182.227 668.392C182.697 668.702 183.249 668.857 183.881 668.857C184.513 668.857 185.064 668.702 185.535 668.392C186.006 668.082 186.37 667.627 186.627 667.028C186.889 666.428 187.02 665.692 187.02 664.818ZM199.905 662.633C199.82 662.339 199.701 662.079 199.548 661.854C199.395 661.625 199.208 661.431 198.987 661.275C198.77 661.114 198.52 660.991 198.238 660.906C197.961 660.822 197.653 660.779 197.315 660.779C196.683 660.779 196.127 660.936 195.649 661.25C195.174 661.564 194.803 662.021 194.538 662.621C194.272 663.216 194.139 663.945 194.139 664.806C194.139 665.667 194.27 666.4 194.532 667.004C194.793 667.607 195.164 668.068 195.642 668.386C196.121 668.7 196.687 668.857 197.339 668.857C197.93 668.857 198.436 668.752 198.854 668.543C199.277 668.33 199.599 668.03 199.82 667.643C200.045 667.257 200.158 666.8 200.158 666.273L200.689 666.352H197.502V664.384H202.676V665.941C202.676 667.028 202.446 667.961 201.987 668.742C201.528 669.519 200.897 670.119 200.092 670.541C199.287 670.96 198.365 671.169 197.327 671.169C196.168 671.169 195.149 670.913 194.272 670.402C193.395 669.887 192.711 669.157 192.22 668.211C191.733 667.261 191.489 666.134 191.489 664.83C191.489 663.828 191.634 662.935 191.924 662.15C192.218 661.361 192.628 660.693 193.155 660.146C193.682 659.598 194.296 659.182 194.997 658.896C195.697 658.61 196.455 658.467 197.272 658.467C197.973 658.467 198.625 658.57 199.228 658.775C199.832 658.976 200.367 659.262 200.834 659.632C201.305 660.003 201.689 660.443 201.987 660.955C202.285 661.462 202.476 662.021 202.561 662.633H199.905ZM207.353 658.636V671H204.739V658.636H207.353ZM219.945 658.636V671H217.687L212.308 663.218H212.218V671H209.604V658.636H211.898L217.234 666.412H217.343V658.636H219.945Z" fill="white"/>
<rect x="24.75" y="706.75" width="340.5" height="49.5" rx="19.25" stroke="#70D6FF" stroke-width="1.5"/>
<path d="M153.063 738V725.636H157.941C158.875 725.636 159.671 725.803 160.331 726.137C160.995 726.467 161.501 726.936 161.847 727.544C162.197 728.148 162.372 728.858 162.372 729.675C162.372 730.496 162.195 731.202 161.841 731.794C161.486 732.382 160.973 732.832 160.301 733.146C159.633 733.46 158.824 733.617 157.874 733.617H154.608V731.516H157.452C157.951 731.516 158.365 731.448 158.695 731.311C159.025 731.174 159.271 730.969 159.432 730.695C159.597 730.422 159.679 730.082 159.679 729.675C159.679 729.265 159.597 728.918 159.432 728.637C159.271 728.355 159.023 728.142 158.689 727.997C158.359 727.848 157.943 727.773 157.44 727.773H155.677V738H153.063ZM159.74 732.374L162.813 738H159.927L156.921 732.374H159.74ZM164.319 738V725.636H172.65V727.792H166.933V730.738H172.222V732.893H166.933V735.845H172.674V738H164.319ZM183.027 729.633C182.942 729.339 182.823 729.079 182.67 728.854C182.517 728.625 182.33 728.431 182.109 728.275C181.892 728.114 181.642 727.991 181.36 727.906C181.083 727.822 180.775 727.779 180.437 727.779C179.805 727.779 179.249 727.936 178.771 728.25C178.296 728.564 177.925 729.021 177.66 729.621C177.394 730.216 177.261 730.945 177.261 731.806C177.261 732.667 177.392 733.4 177.654 734.004C177.915 734.607 178.286 735.068 178.764 735.386C179.243 735.7 179.809 735.857 180.461 735.857C181.052 735.857 181.558 735.752 181.976 735.543C182.399 735.33 182.721 735.03 182.942 734.643C183.167 734.257 183.28 733.8 183.28 733.273L183.811 733.352H180.624V731.384H185.797V732.941C185.797 734.028 185.568 734.961 185.109 735.742C184.65 736.519 184.019 737.119 183.214 737.541C182.409 737.96 181.487 738.169 180.449 738.169C179.29 738.169 178.271 737.913 177.394 737.402C176.517 736.887 175.833 736.157 175.342 735.211C174.855 734.261 174.611 733.134 174.611 731.83C174.611 730.828 174.756 729.935 175.046 729.15C175.34 728.361 175.75 727.693 176.277 727.146C176.804 726.598 177.418 726.182 178.119 725.896C178.819 725.61 179.577 725.467 180.394 725.467C181.095 725.467 181.747 725.57 182.35 725.775C182.954 725.976 183.489 726.262 183.956 726.632C184.427 727.003 184.811 727.443 185.109 727.955C185.407 728.462 185.598 729.021 185.683 729.633H183.027ZM190.475 725.636V738H187.861V725.636H190.475ZM199.433 729.192C199.384 728.705 199.177 728.327 198.811 728.057C198.445 727.788 197.948 727.653 197.32 727.653C196.893 727.653 196.533 727.713 196.239 727.834C195.945 727.951 195.72 728.114 195.563 728.323C195.41 728.532 195.334 728.77 195.334 729.035C195.326 729.257 195.372 729.45 195.472 729.615C195.577 729.78 195.72 729.923 195.901 730.043C196.082 730.16 196.291 730.263 196.529 730.351C196.766 730.436 197.02 730.508 197.29 730.569L198.4 730.834C198.94 730.955 199.435 731.116 199.885 731.317C200.336 731.518 200.727 731.766 201.057 732.06C201.387 732.353 201.642 732.7 201.823 733.098C202.008 733.496 202.103 733.953 202.107 734.468C202.103 735.225 201.91 735.881 201.527 736.436C201.149 736.988 200.602 737.416 199.885 737.722C199.173 738.024 198.314 738.175 197.308 738.175C196.31 738.175 195.44 738.022 194.7 737.716C193.963 737.41 193.388 736.958 192.973 736.358C192.563 735.754 192.347 735.008 192.327 734.118H194.857C194.885 734.533 195.004 734.879 195.213 735.157C195.426 735.43 195.71 735.638 196.064 735.778C196.422 735.915 196.827 735.984 197.277 735.984C197.72 735.984 198.105 735.919 198.431 735.79C198.761 735.662 199.016 735.483 199.197 735.253C199.378 735.024 199.469 734.76 199.469 734.462C199.469 734.185 199.386 733.951 199.221 733.762C199.06 733.573 198.823 733.412 198.509 733.279C198.199 733.146 197.819 733.026 197.368 732.917L196.022 732.579C194.979 732.325 194.156 731.929 193.553 731.39C192.949 730.85 192.649 730.124 192.653 729.21C192.649 728.462 192.848 727.808 193.251 727.248C193.657 726.689 194.215 726.252 194.923 725.938C195.631 725.624 196.436 725.467 197.338 725.467C198.255 725.467 199.056 725.624 199.741 725.938C200.429 726.252 200.964 726.689 201.346 727.248C201.729 727.808 201.926 728.456 201.938 729.192H199.433ZM203.494 727.792V725.636H213.649V727.792H209.863V738H207.28V727.792H203.494ZM215.421 738V725.636H223.752V727.792H218.035V730.738H223.323V732.893H218.035V735.845H223.776V738H215.421ZM225.93 738V725.636H230.808C231.741 725.636 232.538 725.803 233.198 726.137C233.862 726.467 234.368 726.936 234.714 727.544C235.064 728.148 235.239 728.858 235.239 729.675C235.239 730.496 235.062 731.202 234.708 731.794C234.353 732.382 233.84 732.832 233.168 733.146C232.5 733.46 231.691 733.617 230.741 733.617H227.475V731.516H230.319C230.818 731.516 231.232 731.448 231.562 731.311C231.892 731.174 232.138 730.969 232.299 730.695C232.464 730.422 232.546 730.082 232.546 729.675C232.546 729.265 232.464 728.918 232.299 728.637C232.138 728.355 231.89 728.142 231.556 727.997C231.226 727.848 230.81 727.773 230.307 727.773H228.544V738H225.93ZM232.607 732.374L235.68 738H232.794L229.788 732.374H232.607Z" fill="#70D6FF"/>
<path d="M146.628 775.561V774.545H153.719V775.561H150.746V784H149.601V775.561H146.628ZM154.459 784V776.909H155.511V777.98H155.585C155.714 777.629 155.948 777.345 156.287 777.126C156.625 776.908 157.007 776.798 157.432 776.798C157.512 776.798 157.612 776.8 157.732 776.803C157.852 776.806 157.943 776.811 158.004 776.817V777.925C157.967 777.915 157.883 777.902 157.75 777.883C157.621 777.862 157.484 777.851 157.339 777.851C156.995 777.851 156.687 777.923 156.416 778.068C156.148 778.209 155.936 778.406 155.779 778.659C155.625 778.908 155.548 779.193 155.548 779.513V784H154.459ZM160.07 786.659C159.885 786.659 159.721 786.644 159.576 786.613C159.431 786.585 159.331 786.558 159.276 786.53L159.553 785.57C159.818 785.637 160.052 785.662 160.255 785.643C160.458 785.625 160.638 785.534 160.795 785.371C160.955 785.211 161.101 784.951 161.233 784.591L161.437 784.037L158.814 776.909H159.996L161.954 782.56H162.027L163.985 776.909H165.167L162.157 785.034C162.021 785.4 161.854 785.703 161.654 785.944C161.453 786.187 161.221 786.367 160.956 786.484C160.695 786.601 160.399 786.659 160.07 786.659ZM174.998 778.497L174.019 778.774C173.957 778.611 173.867 778.453 173.747 778.299C173.63 778.142 173.47 778.012 173.267 777.911C173.063 777.809 172.803 777.759 172.486 777.759C172.052 777.759 171.691 777.859 171.401 778.059C171.115 778.256 170.972 778.506 170.972 778.811C170.972 779.082 171.071 779.296 171.268 779.453C171.465 779.61 171.772 779.741 172.191 779.845L173.243 780.104C173.877 780.258 174.35 780.493 174.661 780.81C174.972 781.124 175.127 781.529 175.127 782.024C175.127 782.43 175.01 782.794 174.776 783.114C174.545 783.434 174.222 783.686 173.807 783.871C173.391 784.055 172.908 784.148 172.357 784.148C171.634 784.148 171.035 783.991 170.561 783.677C170.087 783.363 169.787 782.904 169.661 782.301L170.695 782.043C170.794 782.424 170.98 782.71 171.254 782.901C171.531 783.092 171.892 783.188 172.339 783.188C172.846 783.188 173.25 783.08 173.548 782.864C173.85 782.646 174.001 782.384 174.001 782.08C174.001 781.833 173.914 781.627 173.742 781.461C173.57 781.292 173.305 781.165 172.948 781.082L171.766 780.805C171.117 780.652 170.64 780.413 170.335 780.09C170.033 779.764 169.883 779.356 169.883 778.866C169.883 778.466 169.995 778.112 170.22 777.805C170.447 777.497 170.757 777.255 171.148 777.08C171.541 776.904 171.988 776.817 172.486 776.817C173.188 776.817 173.739 776.971 174.139 777.278C174.542 777.586 174.828 777.992 174.998 778.497ZM179.505 784.148C178.84 784.148 178.267 783.991 177.787 783.677C177.307 783.363 176.938 782.931 176.679 782.38C176.421 781.829 176.292 781.199 176.292 780.491C176.292 779.771 176.424 779.136 176.689 778.585C176.956 778.031 177.329 777.598 177.806 777.288C178.286 776.974 178.846 776.817 179.486 776.817C179.985 776.817 180.434 776.909 180.834 777.094C181.234 777.278 181.562 777.537 181.817 777.869C182.073 778.202 182.231 778.589 182.293 779.033H181.204C181.12 778.71 180.936 778.423 180.65 778.174C180.366 777.922 179.985 777.795 179.505 777.795C179.08 777.795 178.708 777.906 178.387 778.128C178.07 778.346 177.823 778.656 177.644 779.056C177.469 779.453 177.381 779.919 177.381 780.455C177.381 781.002 177.467 781.479 177.64 781.886C177.815 782.292 178.061 782.607 178.378 782.832C178.698 783.057 179.074 783.169 179.505 783.169C179.788 783.169 180.045 783.12 180.276 783.021C180.506 782.923 180.702 782.781 180.862 782.597C181.022 782.412 181.136 782.19 181.204 781.932H182.293C182.231 782.35 182.079 782.727 181.836 783.063C181.596 783.395 181.277 783.66 180.88 783.857C180.486 784.051 180.028 784.148 179.505 784.148ZM185.829 784.166C185.38 784.166 184.972 784.082 184.606 783.912C184.24 783.74 183.949 783.492 183.733 783.169C183.518 782.843 183.41 782.449 183.41 781.987C183.41 781.581 183.49 781.252 183.65 780.999C183.81 780.744 184.024 780.544 184.292 780.399C184.56 780.254 184.855 780.147 185.178 780.076C185.505 780.002 185.832 779.944 186.162 779.901C186.593 779.845 186.942 779.804 187.21 779.776C187.48 779.745 187.677 779.694 187.801 779.624C187.927 779.553 187.99 779.43 187.99 779.254V779.217C187.99 778.762 187.865 778.408 187.616 778.156C187.37 777.903 186.996 777.777 186.494 777.777C185.974 777.777 185.566 777.891 185.271 778.119C184.975 778.346 184.768 778.589 184.648 778.848L183.613 778.479C183.798 778.048 184.044 777.712 184.352 777.472C184.663 777.229 185.001 777.06 185.368 776.964C185.737 776.866 186.1 776.817 186.457 776.817C186.685 776.817 186.947 776.844 187.242 776.9C187.54 776.952 187.828 777.061 188.105 777.228C188.385 777.394 188.618 777.645 188.802 777.98C188.987 778.316 189.079 778.765 189.079 779.328V784H187.99V783.04H187.934C187.861 783.194 187.737 783.358 187.565 783.534C187.393 783.709 187.163 783.858 186.877 783.982C186.591 784.105 186.242 784.166 185.829 784.166ZM185.996 783.188C186.426 783.188 186.79 783.103 187.085 782.934C187.384 782.764 187.608 782.546 187.759 782.278C187.913 782.01 187.99 781.729 187.99 781.433V780.436C187.944 780.491 187.842 780.542 187.685 780.588C187.531 780.632 187.353 780.67 187.15 780.704C186.95 780.735 186.754 780.762 186.563 780.787C186.376 780.808 186.223 780.827 186.106 780.842C185.823 780.879 185.558 780.939 185.312 781.022C185.069 781.102 184.872 781.224 184.721 781.387C184.574 781.547 184.5 781.766 184.5 782.043C184.5 782.421 184.64 782.707 184.92 782.901C185.203 783.092 185.562 783.188 185.996 783.188ZM192.014 779.734V784H190.925V776.909H191.977V778.017H192.07C192.236 777.657 192.488 777.368 192.827 777.149C193.165 776.928 193.602 776.817 194.138 776.817C194.618 776.817 195.038 776.915 195.398 777.112C195.758 777.306 196.038 777.602 196.238 777.999C196.438 778.393 196.539 778.891 196.539 779.494V784H195.449V779.568C195.449 779.011 195.304 778.577 195.015 778.266C194.726 777.952 194.329 777.795 193.824 777.795C193.476 777.795 193.165 777.871 192.891 778.022C192.621 778.172 192.407 778.393 192.25 778.682C192.093 778.971 192.014 779.322 192.014 779.734ZM205.057 776.909V777.832H201.235V776.909H205.057ZM202.38 784V775.93C202.38 775.524 202.475 775.186 202.666 774.915C202.857 774.644 203.105 774.441 203.409 774.305C203.714 774.17 204.036 774.102 204.374 774.102C204.642 774.102 204.86 774.124 205.03 774.167C205.199 774.21 205.325 774.25 205.408 774.287L205.094 775.229C205.039 775.21 204.962 775.187 204.863 775.159C204.768 775.132 204.642 775.118 204.485 775.118C204.125 775.118 203.865 775.209 203.705 775.39C203.548 775.572 203.469 775.838 203.469 776.189V784H202.38ZM209.122 784.148C208.439 784.148 207.85 783.997 207.354 783.695C206.862 783.391 206.482 782.966 206.214 782.421C205.949 781.873 205.817 781.236 205.817 780.51C205.817 779.784 205.949 779.143 206.214 778.589C206.482 778.032 206.854 777.598 207.331 777.288C207.811 776.974 208.371 776.817 209.011 776.817C209.381 776.817 209.745 776.878 210.106 777.001C210.466 777.125 210.793 777.325 211.089 777.602C211.384 777.875 211.62 778.239 211.795 778.691C211.971 779.143 212.058 779.701 212.058 780.362V780.824H206.592V779.882H210.95C210.95 779.482 210.87 779.125 210.71 778.811C210.553 778.497 210.329 778.249 210.036 778.068C209.747 777.886 209.405 777.795 209.011 777.795C208.577 777.795 208.202 777.903 207.885 778.119C207.571 778.331 207.329 778.608 207.16 778.95C206.991 779.291 206.906 779.657 206.906 780.048V780.676C206.906 781.212 206.999 781.666 207.183 782.038C207.371 782.407 207.631 782.689 207.963 782.883C208.296 783.074 208.682 783.169 209.122 783.169C209.408 783.169 209.667 783.129 209.898 783.049C210.132 782.966 210.333 782.843 210.503 782.68C210.672 782.513 210.803 782.307 210.895 782.061L211.947 782.357C211.837 782.714 211.65 783.027 211.389 783.298C211.127 783.566 210.804 783.775 210.419 783.926C210.035 784.074 209.602 784.148 209.122 784.148ZM215.659 784.166C215.21 784.166 214.802 784.082 214.436 783.912C214.07 783.74 213.779 783.492 213.563 783.169C213.348 782.843 213.24 782.449 213.24 781.987C213.24 781.581 213.32 781.252 213.48 780.999C213.64 780.744 213.854 780.544 214.122 780.399C214.39 780.254 214.685 780.147 215.008 780.076C215.335 780.002 215.662 779.944 215.992 779.901C216.423 779.845 216.772 779.804 217.04 779.776C217.31 779.745 217.507 779.694 217.63 779.624C217.757 779.553 217.82 779.43 217.82 779.254V779.217C217.82 778.762 217.695 778.408 217.446 778.156C217.2 777.903 216.826 777.777 216.324 777.777C215.804 777.777 215.396 777.891 215.101 778.119C214.805 778.346 214.597 778.589 214.477 778.848L213.443 778.479C213.628 778.048 213.874 777.712 214.182 777.472C214.493 777.229 214.831 777.06 215.198 776.964C215.567 776.866 215.93 776.817 216.287 776.817C216.515 776.817 216.776 776.844 217.072 776.9C217.37 776.952 217.658 777.061 217.935 777.228C218.215 777.394 218.448 777.645 218.632 777.98C218.817 778.316 218.909 778.765 218.909 779.328V784H217.82V783.04H217.764C217.69 783.194 217.567 783.358 217.395 783.534C217.223 783.709 216.993 783.858 216.707 783.982C216.421 784.105 216.072 784.166 215.659 784.166ZM215.825 783.188C216.256 783.188 216.619 783.103 216.915 782.934C217.213 782.764 217.438 782.546 217.589 782.278C217.743 782.01 217.82 781.729 217.82 781.433V780.436C217.774 780.491 217.672 780.542 217.515 780.588C217.361 780.632 217.183 780.67 216.98 780.704C216.78 780.735 216.584 780.762 216.393 780.787C216.206 780.808 216.053 780.827 215.936 780.842C215.653 780.879 215.388 780.939 215.142 781.022C214.899 781.102 214.702 781.224 214.551 781.387C214.404 781.547 214.33 781.766 214.33 782.043C214.33 782.421 214.47 782.707 214.75 782.901C215.033 783.092 215.391 783.188 215.825 783.188ZM223.839 776.909V777.832H220.164V776.909H223.839ZM221.235 775.21H222.324V781.969C222.324 782.277 222.369 782.507 222.458 782.661C222.551 782.812 222.668 782.914 222.809 782.966C222.954 783.015 223.106 783.04 223.266 783.04C223.386 783.04 223.485 783.034 223.562 783.021C223.639 783.006 223.7 782.994 223.746 782.984L223.968 783.963C223.894 783.991 223.791 784.018 223.659 784.046C223.526 784.077 223.358 784.092 223.155 784.092C222.848 784.092 222.546 784.026 222.251 783.894C221.958 783.761 221.715 783.56 221.521 783.289C221.33 783.018 221.235 782.677 221.235 782.264V775.21ZM229.803 781.101V776.909H230.893V784H229.803V782.8H229.729C229.563 783.16 229.305 783.466 228.954 783.718C228.603 783.968 228.16 784.092 227.624 784.092C227.181 784.092 226.787 783.995 226.442 783.801C226.098 783.605 225.827 783.309 225.63 782.915C225.433 782.518 225.334 782.018 225.334 781.415V776.909H226.424V781.341C226.424 781.858 226.569 782.27 226.858 782.578C227.15 782.886 227.523 783.04 227.975 783.04C228.246 783.04 228.521 782.971 228.801 782.832C229.085 782.694 229.322 782.481 229.512 782.195C229.706 781.909 229.803 781.544 229.803 781.101ZM232.745 784V776.909H233.798V777.98H233.872C234.001 777.629 234.235 777.345 234.573 777.126C234.912 776.908 235.293 776.798 235.718 776.798C235.798 776.798 235.898 776.8 236.018 776.803C236.138 776.806 236.229 776.811 236.291 776.817V777.925C236.254 777.915 236.169 777.902 236.037 777.883C235.907 777.862 235.77 777.851 235.626 777.851C235.281 777.851 234.973 777.923 234.703 778.068C234.435 778.209 234.222 778.406 234.065 778.659C233.912 778.908 233.835 779.193 233.835 779.513V784H232.745ZM240.196 784.148C239.513 784.148 238.924 783.997 238.428 783.695C237.936 783.391 237.556 782.966 237.288 782.421C237.023 781.873 236.891 781.236 236.891 780.51C236.891 779.784 237.023 779.143 237.288 778.589C237.556 778.032 237.928 777.598 238.405 777.288C238.885 776.974 239.445 776.817 240.085 776.817C240.455 776.817 240.819 776.878 241.18 777.001C241.54 777.125 241.867 777.325 242.163 777.602C242.458 777.875 242.694 778.239 242.869 778.691C243.045 779.143 243.132 779.701 243.132 780.362V780.824H237.666V779.882H242.024C242.024 779.482 241.944 779.125 241.784 778.811C241.627 778.497 241.403 778.249 241.11 778.068C240.821 777.886 240.479 777.795 240.085 777.795C239.652 777.795 239.276 777.903 238.959 778.119C238.645 778.331 238.404 778.608 238.234 778.95C238.065 779.291 237.98 779.657 237.98 780.048V780.676C237.98 781.212 238.073 781.666 238.257 782.038C238.445 782.407 238.705 782.689 239.038 782.883C239.37 783.074 239.756 783.169 240.196 783.169C240.482 783.169 240.741 783.129 240.972 783.049C241.206 782.966 241.407 782.843 241.577 782.68C241.746 782.513 241.877 782.307 241.969 782.061L243.022 782.357C242.911 782.714 242.725 783.027 242.463 783.298C242.201 783.566 241.878 783.775 241.493 783.926C241.109 784.074 240.676 784.148 240.196 784.148Z" fill="#6E6E6E"/>
<path d="M146 786.585H158.582V787.472H146V786.585ZM161.543 786.585H243.797V787.472H161.543V786.585Z" fill="#6E6E6E"/>
<g clip-path="url(#clip1_5059_384)">
<mask id="mask0_5059_384" style="mask-type:luminance" maskUnits="userSpaceOnUse" x="120" y="284" width="150" height="150">
<path d="M195 284C153.578 284 120 317.578 120 359C120 400.422 153.578 434 195 434C236.422 434 270 400.422 270 359C270 317.578 236.422 284 195 284Z" fill="white"/>
</mask>
<g mask="url(#mask0_5059_384)">
<path d="M285 269H105V449H285V269Z" fill="#70D6FF"/>
</g>
<mask id="mask1_5059_384" style="mask-type:luminance" maskUnits="userSpaceOnUse" x="178" y="312" width="52" height="56">
<path d="M178.008 312.906H229.375V367.203H178.008V312.906Z" fill="white"/>
</mask>
<g mask="url(#mask1_5059_384)">
<mask id="mask2_5059_384" style="mask-type:luminance" maskUnits="userSpaceOnUse" x="175" y="297" width="76" height="73">
<path d="M203.113 297.596L250.125 330.736L223.001 369.217L175.988 336.077L203.113 297.596Z" fill="white"/>
</mask>
<g mask="url(#mask2_5059_384)">
<mask id="mask3_5059_384" style="mask-type:luminance" maskUnits="userSpaceOnUse" x="178" y="313" width="52" height="55">
<path d="M229.179 319.465L226.989 362.023C226.889 363.963 225.743 365.695 223.996 366.545C222.249 367.394 220.178 367.227 218.591 366.108L180.377 339.17C178.789 338.051 177.935 336.157 178.149 334.226C178.362 332.295 179.608 330.633 181.401 329.887L220.748 313.522C222.682 312.718 224.891 312.962 226.602 314.168C228.314 315.374 229.286 317.373 229.179 319.465Z" fill="white"/>
</mask>
<g mask="url(#mask3_5059_384)">
<path d="M202.666 290.77L256.706 328.863L226.514 371.693L172.475 333.6L202.666 290.77Z" fill="white"/>
</g>
</g>
</g>
<mask id="mask4_5059_384" style="mask-type:luminance" maskUnits="userSpaceOnUse" x="160" y="350" width="52" height="56">
<path d="M160.625 350.797H211.992V405.094H160.625V350.797Z" fill="white"/>
</mask>
<g mask="url(#mask4_5059_384)">
<mask id="mask5_5059_384" style="mask-type:luminance" maskUnits="userSpaceOnUse" x="139" y="348" width="76" height="73">
<path d="M186.886 420.402L139.874 387.262L166.999 348.783L214.012 381.923L186.886 420.402Z" fill="white"/>
</mask>
<g mask="url(#mask5_5059_384)">
<mask id="mask6_5059_384" style="mask-type:luminance" maskUnits="userSpaceOnUse" x="160" y="350" width="52" height="55">
<path d="M160.821 398.535L163.011 355.976C163.11 354.036 164.257 352.304 166.004 351.454C167.751 350.605 169.821 350.772 171.409 351.891L209.623 378.829C211.211 379.948 212.064 381.842 211.851 383.773C211.638 385.704 210.392 387.366 208.599 388.111L169.251 404.477C167.318 405.281 165.108 405.036 163.398 403.831C161.686 402.625 160.713 400.625 160.821 398.535Z" fill="white"/>
</mask>
<g mask="url(#mask6_5059_384)">
<path d="M187.333 427.229L133.294 389.135L163.486 346.305L217.525 384.399L187.333 427.229Z" fill="white"/>
</g>
</g>
</g>
</g>
<path d="M177.926 465.724H172.614C172.462 464.853 172.183 464.081 171.776 463.409C171.368 462.727 170.862 462.15 170.256 461.676C169.65 461.203 168.958 460.848 168.182 460.611C167.415 460.365 166.586 460.241 165.696 460.241C164.115 460.241 162.713 460.639 161.491 461.435C160.27 462.221 159.313 463.376 158.622 464.901C157.931 466.416 157.585 468.267 157.585 470.455C157.585 472.68 157.931 474.555 158.622 476.08C159.323 477.595 160.279 478.741 161.491 479.517C162.713 480.284 164.11 480.668 165.682 480.668C166.553 480.668 167.367 480.554 168.125 480.327C168.892 480.09 169.579 479.744 170.185 479.29C170.8 478.835 171.316 478.277 171.733 477.614C172.159 476.951 172.453 476.193 172.614 475.341L177.926 475.369C177.727 476.752 177.296 478.049 176.634 479.261C175.98 480.473 175.123 481.544 174.062 482.472C173.002 483.39 171.761 484.11 170.341 484.631C168.92 485.142 167.344 485.398 165.611 485.398C163.054 485.398 160.772 484.806 158.764 483.622C156.757 482.438 155.175 480.729 154.02 478.494C152.865 476.259 152.287 473.58 152.287 470.455C152.287 467.32 152.869 464.64 154.034 462.415C155.199 460.18 156.785 458.471 158.793 457.287C160.8 456.103 163.073 455.511 165.611 455.511C167.23 455.511 168.736 455.739 170.128 456.193C171.52 456.648 172.76 457.315 173.849 458.196C174.938 459.067 175.833 460.137 176.534 461.406C177.244 462.666 177.708 464.105 177.926 465.724ZM187.667 472.216V485H182.525V455.909H187.553V466.889H187.809C188.32 465.658 189.111 464.687 190.181 463.977C191.261 463.258 192.634 462.898 194.3 462.898C195.816 462.898 197.137 463.215 198.263 463.849C199.39 464.484 200.262 465.412 200.877 466.634C201.502 467.855 201.815 469.347 201.815 471.108V485H196.673V471.903C196.673 470.436 196.294 469.295 195.536 468.48C194.788 467.656 193.737 467.244 192.383 467.244C191.474 467.244 190.659 467.443 189.94 467.841C189.229 468.229 188.671 468.793 188.263 469.531C187.866 470.27 187.667 471.165 187.667 472.216ZM207.056 485V463.182H212.198V485H207.056ZM209.641 460.085C208.827 460.085 208.126 459.815 207.539 459.276C206.952 458.726 206.658 458.068 206.658 457.301C206.658 456.525 206.952 455.866 207.539 455.327C208.126 454.777 208.827 454.503 209.641 454.503C210.465 454.503 211.166 454.777 211.744 455.327C212.331 455.866 212.624 456.525 212.624 457.301C212.624 458.068 212.331 458.726 211.744 459.276C211.166 459.815 210.465 460.085 209.641 460.085ZM217.486 493.182V463.182H222.543V466.79H222.841C223.106 466.259 223.48 465.696 223.963 465.099C224.446 464.493 225.099 463.977 225.923 463.551C226.747 463.116 227.798 462.898 229.077 462.898C230.762 462.898 232.282 463.329 233.636 464.19C235 465.043 236.08 466.307 236.875 467.983C237.68 469.65 238.082 471.695 238.082 474.119C238.082 476.515 237.689 478.551 236.903 480.227C236.117 481.903 235.047 483.182 233.693 484.062C232.339 484.943 230.805 485.384 229.091 485.384C227.841 485.384 226.804 485.175 225.98 484.759C225.156 484.342 224.493 483.84 223.991 483.253C223.499 482.656 223.116 482.093 222.841 481.562H222.628V493.182H217.486ZM222.528 474.091C222.528 475.502 222.727 476.738 223.125 477.798C223.532 478.859 224.115 479.687 224.872 480.284C225.639 480.871 226.567 481.165 227.656 481.165C228.793 481.165 229.744 480.862 230.511 480.256C231.278 479.64 231.856 478.802 232.244 477.741C232.642 476.671 232.841 475.455 232.841 474.091C232.841 472.737 232.647 471.534 232.259 470.483C231.87 469.432 231.293 468.608 230.526 468.011C229.759 467.415 228.802 467.116 227.656 467.116C226.558 467.116 225.625 467.405 224.858 467.983C224.091 468.561 223.509 469.37 223.111 470.412C222.723 471.454 222.528 472.68 222.528 474.091Z" fill="#6B6B6B"/>
<path d="M69.9657 511.455H72.068L77.0112 523.528H77.1816L82.1248 511.455H84.2271V526H82.5794V514.949H82.4373L77.8919 526H76.301L71.7555 514.949H71.6135V526H69.9657V511.455ZM90.5217 526.256C89.8304 526.256 89.203 526.125 88.6396 525.865C88.0761 525.6 87.6287 525.219 87.2972 524.722C86.9658 524.22 86.8001 523.614 86.8001 522.903C86.8001 522.278 86.9232 521.772 87.1694 521.384C87.4156 520.991 87.7447 520.683 88.1566 520.46C88.5685 520.238 89.0231 520.072 89.5202 519.963C90.0221 519.849 90.5264 519.759 91.033 519.693C91.6959 519.608 92.2333 519.544 92.6452 519.501C93.0619 519.454 93.3649 519.376 93.5543 519.267C93.7485 519.158 93.8455 518.969 93.8455 518.699V518.642C93.8455 517.941 93.6538 517.397 93.2702 517.009C92.8915 516.62 92.3162 516.426 91.5444 516.426C90.7442 516.426 90.1168 516.601 89.6623 516.952C89.2077 517.302 88.8881 517.676 88.7035 518.074L87.1126 517.506C87.3967 516.843 87.7755 516.327 88.2489 515.957C88.7272 515.583 89.248 515.323 89.8114 515.176C90.3796 515.025 90.9383 514.949 91.4876 514.949C91.838 514.949 92.2404 514.991 92.695 515.077C93.1542 515.157 93.5969 515.325 94.0231 515.581C94.454 515.837 94.8114 516.223 95.0955 516.739C95.3796 517.255 95.5217 517.946 95.5217 518.812V526H93.8455V524.523H93.7603C93.6467 524.759 93.4573 525.013 93.1921 525.283C92.927 525.553 92.5742 525.782 92.1339 525.972C91.6935 526.161 91.1561 526.256 90.5217 526.256ZM90.7773 524.75C91.4402 524.75 91.9989 524.62 92.4535 524.359C92.9128 524.099 93.2584 523.763 93.4904 523.351C93.7272 522.939 93.8455 522.506 93.8455 522.051V520.517C93.7745 520.602 93.6183 520.68 93.3768 520.751C93.14 520.818 92.8654 520.877 92.5529 520.929C92.2451 520.976 91.9445 521.019 91.6509 521.057C91.3621 521.09 91.1277 521.118 90.9478 521.142C90.5122 521.199 90.105 521.291 89.7262 521.419C89.3522 521.542 89.0491 521.729 88.8171 521.98C88.5898 522.226 88.4762 522.562 88.4762 522.989C88.4762 523.571 88.6916 524.011 89.1225 524.31C89.5581 524.603 90.1097 524.75 90.7773 524.75ZM99.9235 522.023L99.8951 519.949H100.236L105.009 515.091H107.083L101.997 520.233H101.855L99.9235 522.023ZM98.361 526V511.455H100.037V526H98.361ZM105.293 526L101.031 520.602L102.225 519.438L107.423 526H105.293ZM109.02 526V515.091H110.696V526H109.02ZM109.872 513.273C109.545 513.273 109.264 513.161 109.027 512.939C108.795 512.716 108.679 512.449 108.679 512.136C108.679 511.824 108.795 511.556 109.027 511.334C109.264 511.111 109.545 511 109.872 511C110.199 511 110.478 511.111 110.71 511.334C110.947 511.556 111.065 511.824 111.065 512.136C111.065 512.449 110.947 512.716 110.71 512.939C110.478 513.161 110.199 513.273 109.872 513.273ZM115.222 519.438V526H113.546V515.091H115.165V516.795H115.307C115.563 516.241 115.951 515.796 116.472 515.46C116.993 515.119 117.665 514.949 118.489 514.949C119.228 514.949 119.874 515.1 120.428 515.403C120.982 515.702 121.413 516.156 121.721 516.767C122.028 517.373 122.182 518.14 122.182 519.068V526H120.506V519.182C120.506 518.325 120.284 517.657 119.839 517.179C119.394 516.696 118.783 516.455 118.006 516.455C117.471 516.455 116.993 516.571 116.572 516.803C116.155 517.035 115.826 517.373 115.584 517.818C115.343 518.263 115.222 518.803 115.222 519.438ZM129.429 530.318C128.619 530.318 127.923 530.214 127.341 530.006C126.758 529.802 126.273 529.532 125.885 529.196C125.501 528.865 125.196 528.509 124.968 528.131L126.304 527.193C126.455 527.392 126.647 527.619 126.879 527.875C127.111 528.135 127.428 528.36 127.831 528.55C128.238 528.744 128.77 528.841 129.429 528.841C130.309 528.841 131.036 528.628 131.609 528.202C132.182 527.776 132.468 527.108 132.468 526.199V523.983H132.326C132.203 524.182 132.028 524.428 131.801 524.722C131.578 525.01 131.256 525.268 130.835 525.496C130.418 525.718 129.855 525.83 129.145 525.83C128.264 525.83 127.473 525.621 126.772 525.205C126.076 524.788 125.525 524.182 125.118 523.386C124.715 522.591 124.514 521.625 124.514 520.489C124.514 519.371 124.71 518.398 125.103 517.57C125.496 516.736 126.043 516.092 126.744 515.638C127.445 515.179 128.254 514.949 129.173 514.949C129.883 514.949 130.447 515.067 130.863 515.304C131.285 515.536 131.607 515.801 131.829 516.099C132.056 516.393 132.232 516.634 132.355 516.824H132.525V515.091H134.145V526.312C134.145 527.25 133.931 528.012 133.505 528.599C133.084 529.191 132.516 529.625 131.801 529.899C131.091 530.179 130.3 530.318 129.429 530.318ZM129.372 524.324C130.044 524.324 130.612 524.17 131.076 523.862C131.54 523.554 131.893 523.112 132.135 522.534C132.376 521.956 132.497 521.265 132.497 520.46C132.497 519.674 132.378 518.981 132.142 518.379C131.905 517.778 131.555 517.307 131.091 516.966C130.627 516.625 130.054 516.455 129.372 516.455C128.662 516.455 128.07 516.634 127.596 516.994C127.127 517.354 126.775 517.837 126.538 518.443C126.306 519.049 126.19 519.722 126.19 520.46C126.19 521.218 126.308 521.888 126.545 522.47C126.787 523.048 127.142 523.502 127.61 523.834C128.084 524.161 128.671 524.324 129.372 524.324ZM146.801 530.318C145.991 530.318 145.295 530.214 144.713 530.006C144.131 529.802 143.645 529.532 143.257 529.196C142.874 528.865 142.568 528.509 142.341 528.131L143.676 527.193C143.828 527.392 144.019 527.619 144.251 527.875C144.483 528.135 144.801 528.36 145.203 528.55C145.61 528.744 146.143 528.841 146.801 528.841C147.682 528.841 148.409 528.628 148.981 528.202C149.554 527.776 149.841 527.108 149.841 526.199V523.983H149.699C149.576 524.182 149.401 524.428 149.173 524.722C148.951 525.01 148.629 525.268 148.207 525.496C147.791 525.718 147.227 525.83 146.517 525.83C145.636 525.83 144.846 525.621 144.145 525.205C143.449 524.788 142.897 524.182 142.49 523.386C142.088 522.591 141.886 521.625 141.886 520.489C141.886 519.371 142.083 518.398 142.476 517.57C142.869 516.736 143.416 516.092 144.116 515.638C144.817 515.179 145.627 514.949 146.545 514.949C147.256 514.949 147.819 515.067 148.236 515.304C148.657 515.536 148.979 515.801 149.202 516.099C149.429 516.393 149.604 516.634 149.727 516.824H149.898V515.091H151.517V526.312C151.517 527.25 151.304 528.012 150.878 528.599C150.456 529.191 149.888 529.625 149.173 529.899C148.463 530.179 147.672 530.318 146.801 530.318ZM146.744 524.324C147.417 524.324 147.985 524.17 148.449 523.862C148.913 523.554 149.266 523.112 149.507 522.534C149.749 521.956 149.869 521.265 149.869 520.46C149.869 519.674 149.751 518.981 149.514 518.379C149.277 517.778 148.927 517.307 148.463 516.966C147.999 516.625 147.426 516.455 146.744 516.455C146.034 516.455 145.442 516.634 144.969 516.994C144.5 517.354 144.147 517.837 143.91 518.443C143.678 519.049 143.562 519.722 143.562 520.46C143.562 521.218 143.681 521.888 143.918 522.47C144.159 523.048 144.514 523.502 144.983 523.834C145.456 524.161 146.044 524.324 146.744 524.324ZM154.365 526V515.091H155.985V516.739H156.098C156.297 516.199 156.657 515.761 157.178 515.425C157.699 515.089 158.286 514.92 158.939 514.92C159.062 514.92 159.216 514.923 159.401 514.928C159.585 514.932 159.725 514.939 159.82 514.949V516.653C159.763 516.639 159.633 516.618 159.429 516.589C159.23 516.556 159.02 516.54 158.797 516.54C158.267 516.54 157.793 516.651 157.377 516.874C156.965 517.091 156.638 517.394 156.396 517.783C156.16 518.166 156.041 518.604 156.041 519.097V526H154.365ZM165.686 526.227C164.702 526.227 163.837 525.993 163.094 525.524C162.355 525.055 161.778 524.4 161.361 523.557C160.949 522.714 160.743 521.729 160.743 520.602C160.743 519.466 160.949 518.474 161.361 517.626C161.778 516.779 162.355 516.121 163.094 515.652C163.837 515.183 164.702 514.949 165.686 514.949C166.671 514.949 167.533 515.183 168.272 515.652C169.015 516.121 169.593 516.779 170.005 517.626C170.421 518.474 170.63 519.466 170.63 520.602C170.63 521.729 170.421 522.714 170.005 523.557C169.593 524.4 169.015 525.055 168.272 525.524C167.533 525.993 166.671 526.227 165.686 526.227ZM165.686 524.722C166.434 524.722 167.05 524.53 167.533 524.146C168.016 523.763 168.373 523.259 168.605 522.634C168.837 522.009 168.953 521.331 168.953 520.602C168.953 519.873 168.837 519.194 168.605 518.564C168.373 517.934 168.016 517.425 167.533 517.037C167.05 516.649 166.434 516.455 165.686 516.455C164.938 516.455 164.323 516.649 163.84 517.037C163.357 517.425 162.999 517.934 162.767 518.564C162.535 519.194 162.419 519.873 162.419 520.602C162.419 521.331 162.535 522.009 162.767 522.634C162.999 523.259 163.357 523.763 163.84 524.146C164.323 524.53 164.938 524.722 165.686 524.722ZM179.843 521.54V515.091H181.519V526H179.843V524.153H179.73C179.474 524.707 179.076 525.179 178.536 525.567C177.997 525.95 177.315 526.142 176.491 526.142C175.809 526.142 175.203 525.993 174.673 525.695C174.142 525.392 173.726 524.937 173.423 524.331C173.12 523.72 172.968 522.951 172.968 522.023V515.091H174.644V521.909C174.644 522.705 174.867 523.339 175.312 523.812C175.762 524.286 176.335 524.523 177.031 524.523C177.447 524.523 177.871 524.416 178.302 524.203C178.738 523.99 179.102 523.663 179.396 523.223C179.694 522.783 179.843 522.222 179.843 521.54ZM184.369 530.091V515.091H185.989V516.824H186.187C186.311 516.634 186.481 516.393 186.699 516.099C186.921 515.801 187.239 515.536 187.651 515.304C188.067 515.067 188.631 514.949 189.341 514.949C190.259 514.949 191.069 515.179 191.77 515.638C192.471 516.097 193.017 516.748 193.41 517.591C193.803 518.434 194 519.428 194 520.574C194 521.729 193.803 522.731 193.41 523.578C193.017 524.421 192.473 525.074 191.777 525.538C191.081 525.998 190.278 526.227 189.369 526.227C188.668 526.227 188.107 526.111 187.686 525.879C187.265 525.643 186.94 525.375 186.713 525.077C186.486 524.774 186.311 524.523 186.187 524.324H186.045V530.091H184.369ZM186.017 520.545C186.017 521.369 186.138 522.096 186.379 522.726C186.621 523.351 186.973 523.841 187.437 524.196C187.901 524.546 188.47 524.722 189.142 524.722C189.843 524.722 190.427 524.537 190.896 524.168C191.37 523.794 191.725 523.292 191.962 522.662C192.203 522.027 192.324 521.322 192.324 520.545C192.324 519.778 192.205 519.087 191.969 518.472C191.737 517.851 191.384 517.361 190.91 517.001C190.442 516.637 189.852 516.455 189.142 516.455C188.46 516.455 187.887 516.627 187.423 516.973C186.959 517.314 186.609 517.792 186.372 518.408C186.135 519.018 186.017 519.731 186.017 520.545ZM205.861 526.227C204.952 526.227 204.149 525.998 203.453 525.538C202.757 525.074 202.213 524.421 201.82 523.578C201.427 522.731 201.23 521.729 201.23 520.574C201.23 519.428 201.427 518.434 201.82 517.591C202.213 516.748 202.76 516.097 203.46 515.638C204.161 515.179 204.971 514.949 205.889 514.949C206.6 514.949 207.161 515.067 207.573 515.304C207.989 515.536 208.307 515.801 208.524 516.099C208.747 516.393 208.92 516.634 209.043 516.824H209.185V511.455H210.861V526H209.242V524.324H209.043C208.92 524.523 208.745 524.774 208.517 525.077C208.29 525.375 207.966 525.643 207.544 525.879C207.123 526.111 206.562 526.227 205.861 526.227ZM206.088 524.722C206.761 524.722 207.329 524.546 207.793 524.196C208.257 523.841 208.61 523.351 208.851 522.726C209.093 522.096 209.213 521.369 209.213 520.545C209.213 519.731 209.095 519.018 208.858 518.408C208.621 517.792 208.271 517.314 207.807 516.973C207.343 516.627 206.77 516.455 206.088 516.455C205.378 516.455 204.786 516.637 204.313 517.001C203.844 517.361 203.491 517.851 203.255 518.472C203.023 519.087 202.907 519.778 202.907 520.545C202.907 521.322 203.025 522.027 203.262 522.662C203.503 523.292 203.858 523.794 204.327 524.168C204.8 524.537 205.388 524.722 206.088 524.722ZM213.944 526V515.091H215.62V526H213.944ZM214.796 513.273C214.469 513.273 214.187 513.161 213.951 512.939C213.719 512.716 213.603 512.449 213.603 512.136C213.603 511.824 213.719 511.556 213.951 511.334C214.187 511.111 214.469 511 214.796 511C215.123 511 215.402 511.111 215.634 511.334C215.871 511.556 215.989 511.824 215.989 512.136C215.989 512.449 215.871 512.716 215.634 512.939C215.402 513.161 215.123 513.273 214.796 513.273ZM220.146 519.438V526H218.47V515.091H220.089V516.795H220.231C220.487 516.241 220.875 515.796 221.396 515.46C221.917 515.119 222.589 514.949 223.413 514.949C224.152 514.949 224.798 515.1 225.352 515.403C225.906 515.702 226.337 516.156 226.644 516.767C226.952 517.373 227.106 518.14 227.106 519.068V526H225.43V519.182C225.43 518.325 225.207 517.657 224.762 517.179C224.317 516.696 223.706 516.455 222.93 516.455C222.395 516.455 221.917 516.571 221.495 516.803C221.079 517.035 220.75 517.373 220.508 517.818C220.267 518.263 220.146 518.803 220.146 519.438ZM229.949 526V515.091H231.625V526H229.949ZM230.801 513.273C230.474 513.273 230.193 513.161 229.956 512.939C229.724 512.716 229.608 512.449 229.608 512.136C229.608 511.824 229.724 511.556 229.956 511.334C230.193 511.111 230.474 511 230.801 511C231.128 511 231.407 511.111 231.639 511.334C231.876 511.556 231.994 511.824 231.994 512.136C231.994 512.449 231.876 512.716 231.639 512.939C231.407 513.161 231.128 513.273 230.801 513.273ZM236.151 519.438V526H234.475V515.091H236.094V516.795H236.236C236.492 516.241 236.88 515.796 237.401 515.46C237.922 515.119 238.594 514.949 239.418 514.949C240.157 514.949 240.803 515.1 241.357 515.403C241.911 515.702 242.342 516.156 242.65 516.767C242.958 517.373 243.111 518.14 243.111 519.068V526H241.435V519.182C241.435 518.325 241.213 517.657 240.768 517.179C240.323 516.696 239.712 516.455 238.935 516.455C238.4 516.455 237.922 516.571 237.501 516.803C237.084 517.035 236.755 517.373 236.513 517.818C236.272 518.263 236.151 518.803 236.151 519.438ZM250.358 530.318C249.548 530.318 248.852 530.214 248.27 530.006C247.687 529.802 247.202 529.532 246.814 529.196C246.43 528.865 246.125 528.509 245.897 528.131L247.233 527.193C247.384 527.392 247.576 527.619 247.808 527.875C248.04 528.135 248.357 528.36 248.76 528.55C249.167 528.744 249.7 528.841 250.358 528.841C251.238 528.841 251.965 528.628 252.538 528.202C253.111 527.776 253.397 527.108 253.397 526.199V523.983H253.255C253.132 524.182 252.957 524.428 252.73 524.722C252.507 525.01 252.185 525.268 251.764 525.496C251.347 525.718 250.784 525.83 250.074 525.83C249.193 525.83 248.402 525.621 247.701 525.205C247.005 524.788 246.454 524.182 246.047 523.386C245.644 522.591 245.443 521.625 245.443 520.489C245.443 519.371 245.639 518.398 246.032 517.57C246.425 516.736 246.972 516.092 247.673 515.638C248.374 515.179 249.183 514.949 250.102 514.949C250.812 514.949 251.376 515.067 251.792 515.304C252.214 515.536 252.536 515.801 252.758 516.099C252.985 516.393 253.161 516.634 253.284 516.824H253.454V515.091H255.074V526.312C255.074 527.25 254.86 528.012 254.434 528.599C254.013 529.191 253.445 529.625 252.73 529.899C252.02 530.179 251.229 530.318 250.358 530.318ZM250.301 524.324C250.973 524.324 251.541 524.17 252.005 523.862C252.469 523.554 252.822 523.112 253.064 522.534C253.305 521.956 253.426 521.265 253.426 520.46C253.426 519.674 253.307 518.981 253.071 518.379C252.834 517.778 252.484 517.307 252.02 516.966C251.556 516.625 250.983 516.455 250.301 516.455C249.591 516.455 248.999 516.634 248.525 516.994C248.057 517.354 247.704 517.837 247.467 518.443C247.235 519.049 247.119 519.722 247.119 520.46C247.119 521.218 247.237 521.888 247.474 522.47C247.716 523.048 248.071 523.502 248.539 523.834C249.013 524.161 249.6 524.324 250.301 524.324ZM267.901 526.227C266.849 526.227 265.943 525.995 265.18 525.531C264.423 525.062 263.838 524.409 263.426 523.571C263.019 522.728 262.815 521.748 262.815 520.631C262.815 519.513 263.019 518.528 263.426 517.676C263.838 516.819 264.411 516.152 265.145 515.673C265.884 515.19 266.745 514.949 267.73 514.949C268.298 514.949 268.859 515.044 269.413 515.233C269.967 515.422 270.472 515.73 270.926 516.156C271.381 516.578 271.743 517.136 272.013 517.832C272.283 518.528 272.418 519.385 272.418 520.403V521.114H264.009V519.665H270.713C270.713 519.049 270.59 518.5 270.344 518.017C270.102 517.534 269.757 517.153 269.307 516.874C268.862 516.594 268.336 516.455 267.73 516.455C267.063 516.455 266.485 516.62 265.997 516.952C265.514 517.278 265.143 517.705 264.882 518.23C264.622 518.756 264.492 519.319 264.492 519.92V520.886C264.492 521.71 264.634 522.409 264.918 522.982C265.206 523.55 265.607 523.983 266.118 524.281C266.629 524.575 267.224 524.722 267.901 524.722C268.341 524.722 268.739 524.66 269.094 524.537C269.454 524.409 269.764 524.22 270.024 523.969C270.285 523.713 270.486 523.396 270.628 523.017L272.247 523.472C272.077 524.021 271.79 524.504 271.388 524.92C270.985 525.332 270.488 525.654 269.896 525.886C269.305 526.114 268.639 526.227 267.901 526.227ZM277.958 526.256C277.266 526.256 276.639 526.125 276.076 525.865C275.512 525.6 275.065 525.219 274.733 524.722C274.402 524.22 274.236 523.614 274.236 522.903C274.236 522.278 274.359 521.772 274.605 521.384C274.852 520.991 275.181 520.683 275.593 520.46C276.004 520.238 276.459 520.072 276.956 519.963C277.458 519.849 277.962 519.759 278.469 519.693C279.132 519.608 279.669 519.544 280.081 519.501C280.498 519.454 280.801 519.376 280.99 519.267C281.184 519.158 281.281 518.969 281.281 518.699V518.642C281.281 517.941 281.09 517.397 280.706 517.009C280.327 516.62 279.752 516.426 278.98 516.426C278.18 516.426 277.553 516.601 277.098 516.952C276.644 517.302 276.324 517.676 276.139 518.074L274.549 517.506C274.833 516.843 275.211 516.327 275.685 515.957C276.163 515.583 276.684 515.323 277.247 515.176C277.816 515.025 278.374 514.949 278.924 514.949C279.274 514.949 279.676 514.991 280.131 515.077C280.59 515.157 281.033 515.325 281.459 515.581C281.89 515.837 282.247 516.223 282.531 516.739C282.816 517.255 282.958 517.946 282.958 518.812V526H281.281V524.523H281.196C281.083 524.759 280.893 525.013 280.628 525.283C280.363 525.553 280.01 525.782 279.57 525.972C279.129 526.161 278.592 526.256 277.958 526.256ZM278.213 524.75C278.876 524.75 279.435 524.62 279.889 524.359C280.349 524.099 280.694 523.763 280.926 523.351C281.163 522.939 281.281 522.506 281.281 522.051V520.517C281.21 520.602 281.054 520.68 280.813 520.751C280.576 520.818 280.301 520.877 279.989 520.929C279.681 520.976 279.38 521.019 279.087 521.057C278.798 521.09 278.564 521.118 278.384 521.142C277.948 521.199 277.541 521.291 277.162 521.419C276.788 521.542 276.485 521.729 276.253 521.98C276.026 522.226 275.912 522.562 275.912 522.989C275.912 523.571 276.128 524.011 276.558 524.31C276.994 524.603 277.546 524.75 278.213 524.75ZM293.524 517.534L292.018 517.96C291.924 517.709 291.784 517.465 291.599 517.229C291.42 516.987 291.173 516.788 290.861 516.632C290.548 516.476 290.148 516.398 289.661 516.398C288.993 516.398 288.437 516.552 287.992 516.859C287.551 517.162 287.331 517.548 287.331 518.017C287.331 518.434 287.483 518.763 287.786 519.004C288.089 519.246 288.562 519.447 289.206 519.608L290.825 520.006C291.801 520.242 292.527 520.605 293.006 521.092C293.484 521.575 293.723 522.198 293.723 522.96C293.723 523.585 293.543 524.144 293.183 524.636C292.828 525.129 292.331 525.517 291.692 525.801C291.053 526.085 290.309 526.227 289.462 526.227C288.349 526.227 287.428 525.986 286.699 525.503C285.97 525.02 285.508 524.314 285.314 523.386L286.905 522.989C287.056 523.576 287.343 524.016 287.764 524.31C288.19 524.603 288.747 524.75 289.433 524.75C290.215 524.75 290.835 524.584 291.294 524.253C291.758 523.917 291.99 523.514 291.99 523.045C291.99 522.667 291.858 522.349 291.592 522.094C291.327 521.833 290.92 521.639 290.371 521.511L288.553 521.085C287.554 520.848 286.82 520.482 286.351 519.984C285.887 519.482 285.655 518.855 285.655 518.102C285.655 517.487 285.828 516.942 286.173 516.469C286.524 515.995 287 515.624 287.601 515.354C288.207 515.084 288.893 514.949 289.661 514.949C290.74 514.949 291.588 515.186 292.203 515.659C292.823 516.133 293.264 516.758 293.524 517.534ZM296.026 526V515.091H297.702V526H296.026ZM296.878 513.273C296.552 513.273 296.27 513.161 296.033 512.939C295.801 512.716 295.685 512.449 295.685 512.136C295.685 511.824 295.801 511.556 296.033 511.334C296.27 511.111 296.552 511 296.878 511C297.205 511 297.484 511.111 297.716 511.334C297.953 511.556 298.072 511.824 298.072 512.136C298.072 512.449 297.953 512.716 297.716 512.939C297.484 513.161 297.205 513.273 296.878 513.273ZM305.126 526.227C304.075 526.227 303.168 525.995 302.406 525.531C301.648 525.062 301.064 524.409 300.652 523.571C300.244 522.728 300.041 521.748 300.041 520.631C300.041 519.513 300.244 518.528 300.652 517.676C301.064 516.819 301.636 516.152 302.37 515.673C303.109 515.19 303.971 514.949 304.956 514.949C305.524 514.949 306.085 515.044 306.639 515.233C307.193 515.422 307.697 515.73 308.152 516.156C308.606 516.578 308.968 517.136 309.238 517.832C309.508 518.528 309.643 519.385 309.643 520.403V521.114H301.234V519.665H307.939C307.939 519.049 307.815 518.5 307.569 518.017C307.328 517.534 306.982 517.153 306.532 516.874C306.087 516.594 305.562 516.455 304.956 516.455C304.288 516.455 303.71 516.62 303.223 516.952C302.74 517.278 302.368 517.705 302.108 518.23C301.847 518.756 301.717 519.319 301.717 519.92V520.886C301.717 521.71 301.859 522.409 302.143 522.982C302.432 523.55 302.832 523.983 303.343 524.281C303.855 524.575 304.449 524.722 305.126 524.722C305.566 524.722 305.964 524.66 306.319 524.537C306.679 524.409 306.989 524.22 307.25 523.969C307.51 523.713 307.711 523.396 307.853 523.017L309.473 523.472C309.302 524.021 309.016 524.504 308.613 524.92C308.211 525.332 307.714 525.654 307.122 525.886C306.53 526.114 305.865 526.227 305.126 526.227ZM311.973 526V515.091H313.592V516.739H313.706C313.905 516.199 314.265 515.761 314.785 515.425C315.306 515.089 315.893 514.92 316.547 514.92C316.67 514.92 316.824 514.923 317.008 514.928C317.193 514.932 317.333 514.939 317.427 514.949V516.653C317.371 516.639 317.24 516.618 317.037 516.589C316.838 516.556 316.627 516.54 316.405 516.54C315.874 516.54 315.401 516.651 314.984 516.874C314.572 517.091 314.246 517.394 314.004 517.783C313.767 518.166 313.649 518.604 313.649 519.097V526H311.973ZM320.444 524.011L320.331 524.778C320.25 525.318 320.127 525.896 319.961 526.511C319.8 527.127 319.632 527.707 319.457 528.251C319.282 528.796 319.137 529.229 319.024 529.551H317.745C317.807 529.248 317.887 528.848 317.987 528.351C318.086 527.854 318.186 527.297 318.285 526.682C318.389 526.071 318.475 525.446 318.541 524.807L318.626 524.011H320.444ZM122.555 556.227C121.57 556.227 120.706 555.993 119.963 555.524C119.224 555.055 118.647 554.4 118.23 553.557C117.818 552.714 117.612 551.729 117.612 550.602C117.612 549.466 117.818 548.474 118.23 547.626C118.647 546.779 119.224 546.121 119.963 545.652C120.706 545.183 121.57 544.949 122.555 544.949C123.54 544.949 124.402 545.183 125.141 545.652C125.884 546.121 126.462 546.779 126.873 547.626C127.29 548.474 127.498 549.466 127.498 550.602C127.498 551.729 127.29 552.714 126.873 553.557C126.462 554.4 125.884 555.055 125.141 555.524C124.402 555.993 123.54 556.227 122.555 556.227ZM122.555 554.722C123.303 554.722 123.919 554.53 124.402 554.146C124.885 553.763 125.242 553.259 125.474 552.634C125.706 552.009 125.822 551.331 125.822 550.602C125.822 549.873 125.706 549.194 125.474 548.564C125.242 547.934 124.885 547.425 124.402 547.037C123.919 546.649 123.303 546.455 122.555 546.455C121.807 546.455 121.192 546.649 120.709 547.037C120.226 547.425 119.868 547.934 119.636 548.564C119.404 549.194 119.288 549.873 119.288 550.602C119.288 551.331 119.404 552.009 119.636 552.634C119.868 553.259 120.226 553.763 120.709 554.146C121.192 554.53 121.807 554.722 122.555 554.722ZM131.513 549.438V556H129.837V545.091H131.456V546.795H131.598C131.854 546.241 132.242 545.796 132.763 545.46C133.284 545.119 133.956 544.949 134.78 544.949C135.519 544.949 136.165 545.1 136.719 545.403C137.273 545.702 137.704 546.156 138.012 546.767C138.32 547.373 138.473 548.14 138.473 549.068V556H136.797V549.182C136.797 548.325 136.575 547.657 136.13 547.179C135.685 546.696 135.074 546.455 134.297 546.455C133.762 546.455 133.284 546.571 132.863 546.803C132.446 547.035 132.117 547.373 131.875 547.818C131.634 548.263 131.513 548.803 131.513 549.438ZM145.89 556.227C144.839 556.227 143.932 555.995 143.17 555.531C142.412 555.062 141.828 554.409 141.416 553.571C141.009 552.728 140.805 551.748 140.805 550.631C140.805 549.513 141.009 548.528 141.416 547.676C141.828 546.819 142.401 546.152 143.134 545.673C143.873 545.19 144.735 544.949 145.72 544.949C146.288 544.949 146.849 545.044 147.403 545.233C147.957 545.422 148.461 545.73 148.916 546.156C149.37 546.578 149.732 547.136 150.002 547.832C150.272 548.528 150.407 549.385 150.407 550.403V551.114H141.998V549.665H148.703C148.703 549.049 148.58 548.5 148.333 548.017C148.092 547.534 147.746 547.153 147.296 546.874C146.851 546.594 146.326 546.455 145.72 546.455C145.052 546.455 144.474 546.62 143.987 546.952C143.504 547.278 143.132 547.705 142.872 548.23C142.611 548.756 142.481 549.319 142.481 549.92V550.886C142.481 551.71 142.623 552.409 142.907 552.982C143.196 553.55 143.596 553.983 144.107 554.281C144.619 554.575 145.213 554.722 145.89 554.722C146.33 554.722 146.728 554.66 147.083 554.537C147.443 554.409 147.753 554.22 148.014 553.969C148.274 553.713 148.475 553.396 148.617 553.017L150.237 553.472C150.066 554.021 149.78 554.504 149.377 554.92C148.975 555.332 148.478 555.654 147.886 555.886C147.294 556.114 146.629 556.227 145.89 556.227ZM158.369 556V541.455H160.045V546.824H160.187C160.31 546.634 160.481 546.393 160.699 546.099C160.921 545.801 161.239 545.536 161.65 545.304C162.067 545.067 162.631 544.949 163.341 544.949C164.259 544.949 165.069 545.179 165.77 545.638C166.471 546.097 167.017 546.748 167.41 547.591C167.803 548.434 168 549.428 168 550.574C168 551.729 167.803 552.731 167.41 553.578C167.017 554.421 166.473 555.074 165.777 555.538C165.081 555.998 164.278 556.227 163.369 556.227C162.668 556.227 162.107 556.111 161.686 555.879C161.265 555.643 160.94 555.375 160.713 555.077C160.486 554.774 160.31 554.523 160.187 554.324H159.989V556H158.369ZM160.017 550.545C160.017 551.369 160.138 552.096 160.379 552.726C160.621 553.351 160.973 553.841 161.437 554.196C161.901 554.546 162.47 554.722 163.142 554.722C163.843 554.722 164.427 554.537 164.896 554.168C165.37 553.794 165.725 553.292 165.962 552.662C166.203 552.027 166.324 551.322 166.324 550.545C166.324 549.778 166.205 549.087 165.969 548.472C165.737 547.851 165.384 547.361 164.91 547.001C164.442 546.637 163.852 546.455 163.142 546.455C162.46 546.455 161.887 546.627 161.423 546.973C160.959 547.314 160.609 547.792 160.372 548.408C160.135 549.018 160.017 549.731 160.017 550.545ZM170.344 556V545.091H172.02V556H170.344ZM171.196 543.273C170.869 543.273 170.588 543.161 170.351 542.939C170.119 542.716 170.003 542.449 170.003 542.136C170.003 541.824 170.119 541.556 170.351 541.334C170.588 541.111 170.869 541 171.196 541C171.523 541 171.802 541.111 172.034 541.334C172.271 541.556 172.389 541.824 172.389 542.136C172.389 542.449 172.271 542.716 172.034 542.939C171.802 543.161 171.523 543.273 171.196 543.273ZM176.546 541.455V556H174.87V541.455H176.546ZM181.072 541.455V556H179.396V541.455H181.072ZM192.537 556.256C191.846 556.256 191.219 556.125 190.655 555.865C190.092 555.6 189.644 555.219 189.313 554.722C188.981 554.22 188.816 553.614 188.816 552.903C188.816 552.278 188.939 551.772 189.185 551.384C189.431 550.991 189.76 550.683 190.172 550.46C190.584 550.238 191.039 550.072 191.536 549.963C192.038 549.849 192.542 549.759 193.049 549.693C193.712 549.608 194.249 549.544 194.661 549.501C195.078 549.454 195.381 549.376 195.57 549.267C195.764 549.158 195.861 548.969 195.861 548.699V548.642C195.861 547.941 195.669 547.397 195.286 547.009C194.907 546.62 194.332 546.426 193.56 546.426C192.76 546.426 192.132 546.601 191.678 546.952C191.223 547.302 190.904 547.676 190.719 548.074L189.128 547.506C189.412 546.843 189.791 546.327 190.265 545.957C190.743 545.583 191.264 545.323 191.827 545.176C192.395 545.025 192.954 544.949 193.503 544.949C193.854 544.949 194.256 544.991 194.711 545.077C195.17 545.157 195.613 545.325 196.039 545.581C196.47 545.837 196.827 546.223 197.111 546.739C197.395 547.255 197.537 547.946 197.537 548.812V556H195.861V554.523H195.776C195.662 554.759 195.473 555.013 195.208 555.283C194.943 555.553 194.59 555.782 194.15 555.972C193.709 556.161 193.172 556.256 192.537 556.256ZM192.793 554.75C193.456 554.75 194.015 554.62 194.469 554.359C194.928 554.099 195.274 553.763 195.506 553.351C195.743 552.939 195.861 552.506 195.861 552.051V550.517C195.79 550.602 195.634 550.68 195.392 550.751C195.156 550.818 194.881 550.877 194.569 550.929C194.261 550.976 193.96 551.019 193.667 551.057C193.378 551.09 193.143 551.118 192.963 551.142C192.528 551.199 192.121 551.291 191.742 551.419C191.368 551.542 191.065 551.729 190.833 551.98C190.605 552.226 190.492 552.562 190.492 552.989C190.492 553.571 190.707 554.011 191.138 554.31C191.574 554.603 192.125 554.75 192.793 554.75ZM205.121 545.091V546.511H199.467V545.091H205.121ZM201.115 542.477H202.791V552.875C202.791 553.348 202.86 553.704 202.997 553.94C203.139 554.172 203.319 554.329 203.537 554.409C203.76 554.485 203.994 554.523 204.24 554.523C204.425 554.523 204.576 554.513 204.695 554.494C204.813 554.471 204.908 554.452 204.979 554.438L205.32 555.943C205.206 555.986 205.048 556.028 204.844 556.071C204.64 556.118 204.382 556.142 204.07 556.142C203.596 556.142 203.132 556.04 202.678 555.837C202.228 555.633 201.854 555.323 201.556 554.906C201.262 554.49 201.115 553.964 201.115 553.33V542.477ZM216.037 556.256C215.346 556.256 214.719 556.125 214.155 555.865C213.592 555.6 213.144 555.219 212.813 554.722C212.482 554.22 212.316 553.614 212.316 552.903C212.316 552.278 212.439 551.772 212.685 551.384C212.931 550.991 213.26 550.683 213.672 550.46C214.084 550.238 214.539 550.072 215.036 549.963C215.538 549.849 216.042 549.759 216.549 549.693C217.212 549.608 217.749 549.544 218.161 549.501C218.578 549.454 218.881 549.376 219.07 549.267C219.264 549.158 219.361 548.969 219.361 548.699V548.642C219.361 547.941 219.17 547.397 218.786 547.009C218.407 546.62 217.832 546.426 217.06 546.426C216.26 546.426 215.633 546.601 215.178 546.952C214.724 547.302 214.404 547.676 214.219 548.074L212.628 547.506C212.912 546.843 213.291 546.327 213.765 545.957C214.243 545.583 214.764 545.323 215.327 545.176C215.895 545.025 216.454 544.949 217.003 544.949C217.354 544.949 217.756 544.991 218.211 545.077C218.67 545.157 219.113 545.325 219.539 545.581C219.97 545.837 220.327 546.223 220.611 546.739C220.895 547.255 221.037 547.946 221.037 548.812V556H219.361V554.523H219.276C219.162 554.759 218.973 555.013 218.708 555.283C218.443 555.553 218.09 555.782 217.65 555.972C217.209 556.161 216.672 556.256 216.037 556.256ZM216.293 554.75C216.956 554.75 217.515 554.62 217.969 554.359C218.429 554.099 218.774 553.763 219.006 553.351C219.243 552.939 219.361 552.506 219.361 552.051V550.517C219.29 550.602 219.134 550.68 218.893 550.751C218.656 550.818 218.381 550.877 218.069 550.929C217.761 550.976 217.46 551.019 217.167 551.057C216.878 551.09 216.644 551.118 216.464 551.142C216.028 551.199 215.621 551.291 215.242 551.419C214.868 551.542 214.565 551.729 214.333 551.98C214.106 552.226 213.992 552.562 213.992 552.989C213.992 553.571 214.207 554.011 214.638 554.31C215.074 554.603 215.626 554.75 216.293 554.75ZM234.026 545.091V546.511H228.373V545.091H234.026ZM230.02 542.477H231.697V552.875C231.697 553.348 231.765 553.704 231.902 553.94C232.045 554.172 232.224 554.329 232.442 554.409C232.665 554.485 232.899 554.523 233.145 554.523C233.33 554.523 233.482 554.513 233.6 554.494C233.718 554.471 233.813 554.452 233.884 554.438L234.225 555.943C234.111 555.986 233.953 556.028 233.749 556.071C233.545 556.118 233.287 556.142 232.975 556.142C232.501 556.142 232.037 556.04 231.583 555.837C231.133 555.633 230.759 555.323 230.461 554.906C230.167 554.49 230.02 553.964 230.02 553.33V542.477ZM236.327 556V545.091H238.004V556H236.327ZM237.18 543.273C236.853 543.273 236.571 543.161 236.334 542.939C236.102 542.716 235.986 542.449 235.986 542.136C235.986 541.824 236.102 541.556 236.334 541.334C236.571 541.111 236.853 541 237.18 541C237.506 541 237.786 541.111 238.018 541.334C238.254 541.556 238.373 541.824 238.373 542.136C238.373 542.449 238.254 542.716 238.018 542.939C237.786 543.161 237.506 543.273 237.18 543.273ZM240.853 556V545.091H242.473V546.795H242.615C242.842 546.213 243.209 545.761 243.716 545.439C244.222 545.112 244.831 544.949 245.541 544.949C246.261 544.949 246.86 545.112 247.338 545.439C247.821 545.761 248.197 546.213 248.467 546.795H248.581C248.86 546.232 249.279 545.785 249.838 545.453C250.397 545.117 251.067 544.949 251.848 544.949C252.823 544.949 253.621 545.254 254.241 545.865C254.862 546.471 255.172 547.416 255.172 548.699V556H253.496V548.699C253.496 547.894 253.275 547.319 252.835 546.973C252.395 546.627 251.876 546.455 251.28 546.455C250.513 546.455 249.918 546.687 249.497 547.151C249.076 547.61 248.865 548.192 248.865 548.898V556H247.16V548.528C247.16 547.908 246.959 547.409 246.557 547.03C246.154 546.646 245.636 546.455 245.001 546.455C244.566 546.455 244.158 546.571 243.78 546.803C243.406 547.035 243.103 547.357 242.871 547.768C242.643 548.176 242.53 548.647 242.53 549.182V556H240.853ZM262.59 556.227C261.539 556.227 260.632 555.995 259.87 555.531C259.112 555.062 258.528 554.409 258.116 553.571C257.709 552.728 257.505 551.748 257.505 550.631C257.505 549.513 257.709 548.528 258.116 547.676C258.528 546.819 259.101 546.152 259.834 545.673C260.573 545.19 261.435 544.949 262.42 544.949C262.988 544.949 263.549 545.044 264.103 545.233C264.657 545.422 265.161 545.73 265.616 546.156C266.07 546.578 266.432 547.136 266.702 547.832C266.972 548.528 267.107 549.385 267.107 550.403V551.114H258.698V549.665H265.403C265.403 549.049 265.28 548.5 265.033 548.017C264.792 547.534 264.446 547.153 263.996 546.874C263.551 546.594 263.026 546.455 262.42 546.455C261.752 546.455 261.174 546.62 260.687 546.952C260.204 547.278 259.832 547.705 259.572 548.23C259.311 548.756 259.181 549.319 259.181 549.92V550.886C259.181 551.71 259.323 552.409 259.607 552.982C259.896 553.55 260.296 553.983 260.807 554.281C261.319 554.575 261.913 554.722 262.59 554.722C263.03 554.722 263.428 554.66 263.783 554.537C264.143 554.409 264.453 554.22 264.714 553.969C264.974 553.713 265.175 553.396 265.317 553.017L266.937 553.472C266.766 554.021 266.48 554.504 266.077 554.92C265.675 555.332 265.178 555.654 264.586 555.886C263.994 556.114 263.329 556.227 262.59 556.227ZM270.658 556.114C270.308 556.114 270.007 555.988 269.756 555.737C269.506 555.486 269.38 555.186 269.38 554.835C269.38 554.485 269.506 554.184 269.756 553.933C270.007 553.682 270.308 553.557 270.658 553.557C271.009 553.557 271.31 553.682 271.56 553.933C271.811 554.184 271.937 554.485 271.937 554.835C271.937 555.067 271.878 555.28 271.759 555.474C271.646 555.669 271.492 555.825 271.298 555.943C271.108 556.057 270.895 556.114 270.658 556.114Z" fill="#35C5FF"/>
</g>
<rect x="0.5" y="0.5" width="389" height="843" rx="29.5" stroke="#E6E6E6"/>
<defs>
<clipPath id="clip0_5059_384">
<rect width="390" height="844" rx="30" fill="white"/>
</clipPath>
<clipPath id="clip1_5059_384">
<rect width="150" height="150" fill="white" transform="translate(120 284)"/>
</clipPath>
</defs>
</svg>
