<svg width="150" height="150" viewBox="0 0 150 150" fill="none" xmlns="http://www.w3.org/2000/svg">
    <g clip-path="url(#clip0_81_264)">
        <path fill-rule="evenodd" clip-rule="evenodd" d="M48.3716 115.957C48.3716 115.957 40.6381 119.284 53.8752 120.41C69.9116 121.764 78.1076 121.569 95.7798 119.095C95.7798 119.095 100.426 121.25 106.915 123.117C67.2983 135.68 17.2551 122.39 48.3716 115.957Z" fill="currentColor"/>
        <path fill-rule="evenodd" clip-rule="evenodd" d="M43.5307 99.5635C43.5307 99.5635 34.8569 104.314 48.1038 105.328C65.2344 106.635 78.7627 106.742 102.172 103.407C102.172 103.407 105.41 105.836 110.501 107.164C62.6026 117.527 9.25219 107.981 43.5307 99.5635Z" fill="currentColor"/>
        <path fill-rule="evenodd" clip-rule="evenodd" d="M84.341 71.7551C94.1025 80.0703 81.7763 87.553 81.7763 87.553C81.7763 87.553 106.562 78.0859 95.1792 66.231C84.5478 55.1755 76.3949 49.6825 120.531 30.7432C120.531 30.7432 51.2516 43.5453 84.341 71.7551Z" fill="currentColor"/>
        <path fill-rule="evenodd" clip-rule="evenodd" d="M136.737 128.082C136.737 128.082 142.46 131.571 130.434 134.27C107.567 139.395 35.2589 140.943 15.1719 134.474C7.95121 132.15 21.4921 128.925 25.7516 128.248C30.1938 127.535 32.7323 127.668 32.7323 127.668C24.7021 123.482 -19.1715 135.886 10.4467 139.438C91.2198 149.13 157.688 135.074 136.737 128.082Z" fill="currentColor"/>
        <path fill-rule="evenodd" clip-rule="evenodd" d="M52.0905 82.5781C52.0905 82.5781 15.31 89.0417 39.0656 91.3889C49.096 92.3825 69.0913 92.1577 87.7164 91.0031C102.938 90.0531 118.222 88.0332 118.222 88.0332C118.222 88.0332 112.855 89.7338 108.972 91.6956C71.6216 98.9636 -0.531635 95.5824 20.2404 88.1482C37.8073 81.8654 52.0905 82.5781 52.0905 82.5781Z" fill="currentColor"/>
        <path fill-rule="evenodd" clip-rule="evenodd" d="M118.07 109.865C156.038 95.2675 138.483 81.2393 126.23 83.1292C123.227 83.5917 121.888 83.9924 121.888 83.9924C121.888 83.9924 123.003 82.7002 125.132 82.1408C149.373 75.8354 168.015 100.738 117.307 110.601C117.307 110.601 117.895 110.213 118.07 109.865Z" fill="currentColor"/>
        <path fill-rule="evenodd" clip-rule="evenodd" d="M95.1793 0.161133C95.1793 0.161133 116.207 15.7241 75.2359 39.6556C42.3815 58.8528 67.7441 69.7985 75.2222 82.3044C56.0446 69.5023 41.9708 58.2325 51.4126 47.7436C65.271 32.3469 103.663 24.882 95.1793 0.161133Z" fill="currentColor"/>
        <path fill-rule="evenodd" clip-rule="evenodd" d="M55.8214 149.422C92.266 151.148 148.231 148.464 149.556 135.705C149.556 135.705 147.008 140.542 119.437 144.383C88.3305 148.714 49.9654 148.209 27.2107 145.433C27.2107 145.433 31.8689 148.285 55.8214 149.422Z" fill="currentColor"/>
    </g>
    <defs>
        <clipPath id="clip0_81_264">
            <rect width="150" height="150" fill="white"/>
        </clipPath>
    </defs>
</svg>