<svg width="390" height="844" viewBox="0 0 390 844" fill="none" xmlns="http://www.w3.org/2000/svg">
<g clip-path="url(#clip0_5056_2798)">
<rect width="390" height="844" rx="30" fill="#70D6FF"/>
<path d="M54.2666 26.7231C54.9085 26.7231 55.5173 26.8421 56.0928 27.0801C56.6683 27.3125 57.1774 27.6777 57.6201 28.1758C58.0684 28.6683 58.4198 29.3019 58.6743 30.0767C58.9289 30.8459 59.0562 31.7728 59.0562 32.8574V32.874C59.0562 34.2188 58.8625 35.3698 58.4751 36.3271C58.0877 37.2845 57.5316 38.0205 56.8066 38.5352C56.0872 39.0443 55.2267 39.2988 54.2251 39.2988C53.4891 39.2988 52.825 39.166 52.2329 38.9004C51.6463 38.6292 51.1593 38.2585 50.772 37.7881C50.3901 37.3122 50.1328 36.7699 50 36.1611L49.9834 36.0698H52.0835L52.1167 36.1528C52.2218 36.4295 52.3713 36.673 52.5649 36.8833C52.7642 37.0936 53.0021 37.2568 53.2788 37.373C53.561 37.4837 53.8765 37.5391 54.2251 37.5391C54.856 37.5391 55.3706 37.3537 55.769 36.9829C56.173 36.6066 56.4746 36.1058 56.6738 35.4805C56.8786 34.8496 56.9948 34.1523 57.0225 33.3887C57.028 33.3057 57.0308 33.2254 57.0308 33.1479C57.0308 33.0649 57.0308 32.9847 57.0308 32.9072L56.6572 30.9067C56.6572 30.453 56.5521 30.0407 56.3418 29.6699C56.1315 29.2992 55.8465 29.0059 55.4868 28.79C55.1326 28.5742 54.7314 28.4663 54.2832 28.4663C53.8516 28.4663 53.4559 28.5715 53.0962 28.7817C52.7365 28.992 52.4487 29.2798 52.2329 29.645C52.0171 30.0047 51.9092 30.4087 51.9092 30.8569V30.8735C51.9092 31.3384 52.0116 31.7507 52.2163 32.1104C52.4211 32.4645 52.7005 32.744 53.0547 32.9487C53.4089 33.1535 53.8128 33.2559 54.2666 33.2559C54.7204 33.2559 55.1271 33.1562 55.4868 32.957C55.8465 32.7578 56.1315 32.4811 56.3418 32.127C56.5521 31.7728 56.6572 31.3716 56.6572 30.9233V30.9067H57.1553V33.1147H56.8647C56.7209 33.4302 56.5078 33.7235 56.2256 33.9946C55.9434 34.2658 55.5947 34.4844 55.1797 34.6504C54.7702 34.8164 54.2887 34.8994 53.7354 34.8994C52.9717 34.8994 52.2965 34.7279 51.71 34.3848C51.1234 34.0417 50.6613 33.5713 50.3237 32.9736C49.9917 32.376 49.8257 31.7008 49.8257 30.9482V30.9316C49.8257 30.1182 50.0138 29.396 50.3901 28.7651C50.772 28.1287 51.2977 27.6307 51.9673 27.271C52.6424 26.9058 53.4089 26.7231 54.2666 26.7231ZM62.8247 37.3896C62.4484 37.3896 62.133 37.2651 61.8784 37.0161C61.6294 36.7616 61.5049 36.4517 61.5049 36.0864C61.5049 35.7157 61.6294 35.4058 61.8784 35.1567C62.133 34.9022 62.4484 34.7749 62.8247 34.7749C63.2065 34.7749 63.522 34.9022 63.771 35.1567C64.02 35.4058 64.1445 35.7157 64.1445 36.0864C64.1445 36.4517 64.02 36.7616 63.771 37.0161C63.522 37.2651 63.2065 37.3896 62.8247 37.3896ZM62.8247 31.2305C62.4484 31.2305 62.133 31.106 61.8784 30.8569C61.6294 30.6024 61.5049 30.2925 61.5049 29.9272C61.5049 29.5565 61.6294 29.2466 61.8784 28.9976C62.133 28.743 62.4484 28.6157 62.8247 28.6157C63.2065 28.6157 63.522 28.743 63.771 28.9976C64.02 29.2466 64.1445 29.5565 64.1445 29.9272C64.1445 30.2925 64.02 30.6024 63.771 30.8569C63.522 31.106 63.2065 31.2305 62.8247 31.2305ZM72.4038 39V36.7007H66.5435V34.9492C66.8589 34.4124 67.1743 33.8729 67.4897 33.3306C67.8107 32.7882 68.1344 32.2487 68.4609 31.7119C68.793 31.1696 69.1222 30.6356 69.4487 30.1099C69.7808 29.5786 70.11 29.0557 70.4365 28.541C70.7686 28.0208 71.1006 27.5145 71.4326 27.022H74.4458V34.9326H76.0645V36.7007H74.4458V39H72.4038ZM68.5356 34.9824H72.437V28.7319H72.3125C72.069 29.1082 71.8172 29.4956 71.5571 29.894C71.3026 30.2925 71.0452 30.6992 70.7852 31.1143C70.5251 31.5293 70.2677 31.9471 70.0132 32.3677C69.7586 32.7827 69.5068 33.2005 69.2578 33.6211C69.0088 34.0361 68.7681 34.4484 68.5356 34.8579V34.9824ZM81.02 39V29.1304H80.8706L77.8906 31.2305V29.2217L81.02 27.022H83.1533V39H81.02Z" fill="black"/>
<path fill-rule="evenodd" clip-rule="evenodd" d="M303.365 27.5329C303.365 26.8999 302.887 26.3867 302.298 26.3867H301.232C300.643 26.3867 300.165 26.8999 300.165 27.5329V37.4669C300.165 38.0999 300.643 38.6131 301.232 38.6131H302.298C302.887 38.6131 303.365 38.0999 303.365 37.4669V27.5329ZM295.931 28.832H296.998C297.587 28.832 298.064 29.3575 298.064 30.0057V37.4394C298.064 38.0876 297.587 38.6131 296.998 38.6131H295.931C295.342 38.6131 294.864 38.0876 294.864 37.4394V30.0057C294.864 29.3575 295.342 28.832 295.931 28.832ZM291.599 31.481H290.532C289.943 31.481 289.466 32.0132 289.466 32.6697V37.4244C289.466 38.0809 289.943 38.6131 290.532 38.6131H291.599C292.188 38.6131 292.666 38.0809 292.666 37.4244V32.6697C292.666 32.0132 292.188 31.481 291.599 31.481ZM286.298 33.9263H285.232C284.643 33.9263 284.165 34.4509 284.165 35.098V37.4414C284.165 38.0885 284.643 38.6131 285.232 38.6131H286.298C286.887 38.6131 287.365 38.0885 287.365 37.4414V35.098C287.365 34.4509 286.887 33.9263 286.298 33.9263Z" fill="black"/>
<path fill-rule="evenodd" clip-rule="evenodd" d="M318.937 28.8022C321.424 28.8023 323.816 29.7244 325.618 31.3779C325.754 31.5055 325.971 31.5039 326.105 31.3743L327.402 30.1108C327.47 30.045 327.507 29.956 327.507 29.8633C327.506 29.7706 327.468 29.682 327.399 29.617C322.668 25.2423 315.204 25.2423 310.473 29.617C310.405 29.6819 310.366 29.7705 310.365 29.8632C310.365 29.9559 310.402 30.045 310.47 30.1108L311.768 31.3743C311.901 31.5041 312.119 31.5057 312.254 31.3779C314.057 29.7243 316.449 28.8022 318.937 28.8022ZM318.933 33.0225C320.291 33.0224 321.599 33.5342 322.606 34.4583C322.742 34.5894 322.956 34.5866 323.089 34.4519L324.376 33.1326C324.444 33.0634 324.481 32.9695 324.48 32.8719C324.479 32.7744 324.44 32.6813 324.371 32.6135C321.307 29.7227 316.562 29.7227 313.498 32.6135C313.429 32.6813 313.39 32.7744 313.389 32.872C313.388 32.9696 313.426 33.0635 313.493 33.1326L314.78 34.4519C314.913 34.5866 315.127 34.5894 315.263 34.4583C316.269 33.5348 317.577 33.0231 318.933 33.0225ZM321.458 35.816C321.46 35.9214 321.422 36.023 321.355 36.0968L319.179 38.5515C319.115 38.6236 319.028 38.6642 318.937 38.6642C318.846 38.6642 318.759 38.6236 318.695 38.5515L316.518 36.0968C316.451 36.0229 316.414 35.9213 316.416 35.816C316.418 35.7106 316.459 35.6108 316.529 35.5402C317.919 34.2263 319.955 34.2263 321.345 35.5402C321.415 35.6109 321.456 35.7107 321.458 35.816Z" fill="black"/>
<rect opacity="0.35" x="335.007" y="26.5" width="24" height="12" rx="3.8" stroke="black"/>
<path opacity="0.4" d="M360.507 30.7812V34.8567C361.312 34.5116 361.835 33.7086 361.835 32.819C361.835 31.9294 361.312 31.1264 360.507 30.7812Z" fill="black"/>
<rect x="336.507" y="28" width="21" height="9" rx="2.5" fill="black"/>
<rect width="144" height="5" rx="2.5" transform="matrix(-1 0 0 1 267 831)" fill="black"/>
<g clip-path="url(#clip1_5056_2798)">
<mask id="mask0_5056_2798" style="mask-type:luminance" maskUnits="userSpaceOnUse" x="88" y="315" width="214" height="214">
<path d="M195 315C135.905 315 88 362.905 88 422C88 481.095 135.905 529 195 529C254.095 529 302 481.095 302 422C302 362.905 254.095 315 195 315Z" fill="white"/>
</mask>
<g mask="url(#mask0_5056_2798)">
<path d="M323.4 293.6H66.6001V550.4H323.4V293.6Z" fill="#70D6FF"/>
</g>
<mask id="mask1_5056_2798" style="mask-type:luminance" maskUnits="userSpaceOnUse" x="170" y="356" width="75" height="78">
<path d="M170.758 356.24H244.042V433.703H170.758V356.24Z" fill="white"/>
</mask>
<g mask="url(#mask1_5056_2798)">
<mask id="mask2_5056_2798" style="mask-type:luminance" maskUnits="userSpaceOnUse" x="167" y="334" width="107" height="103">
<path d="M206.575 334.397L273.646 381.677L234.948 436.576L167.877 389.296L206.575 334.397Z" fill="white"/>
</mask>
<g mask="url(#mask2_5056_2798)">
<mask id="mask3_5056_2798" style="mask-type:luminance" maskUnits="userSpaceOnUse" x="170" y="356" width="74" height="78">
<path d="M243.762 365.596L240.638 426.313C240.496 429.081 238.86 431.551 236.368 432.764C233.876 433.975 230.922 433.737 228.656 432.14L174.138 393.709C171.873 392.112 170.655 389.411 170.959 386.656C171.263 383.901 173.04 381.53 175.599 380.466L231.735 357.118C234.493 355.971 237.645 356.319 240.086 358.04C242.528 359.761 243.914 362.613 243.762 365.596Z" fill="white"/>
</mask>
<g mask="url(#mask3_5056_2798)">
<path d="M205.937 324.658L283.034 379.005L239.96 440.109L162.865 385.762L205.937 324.658Z" fill="white"/>
</g>
</g>
</g>
<mask id="mask4_5056_2798" style="mask-type:luminance" maskUnits="userSpaceOnUse" x="145" y="410" width="75" height="78">
<path d="M145.958 410.297H219.242V487.76H145.958V410.297Z" fill="white"/>
</mask>
<g mask="url(#mask4_5056_2798)">
<mask id="mask5_5056_2798" style="mask-type:luminance" maskUnits="userSpaceOnUse" x="116" y="407" width="107" height="103">
<path d="M183.424 509.6L116.353 462.321L155.052 407.423L222.123 454.703L183.424 509.6Z" fill="white"/>
</mask>
<g mask="url(#mask5_5056_2798)">
<mask id="mask6_5056_2798" style="mask-type:luminance" maskUnits="userSpaceOnUse" x="146" y="410" width="74" height="78">
<path d="M146.238 478.403L149.362 417.685C149.503 414.918 151.139 412.447 153.632 411.234C156.125 410.023 159.079 410.261 161.344 411.858L215.863 450.289C218.128 451.886 219.345 454.587 219.041 457.342C218.737 460.097 216.959 462.469 214.401 463.532L158.264 486.881C155.507 488.027 152.354 487.679 149.914 485.959C147.472 484.238 146.085 481.385 146.238 478.403Z" fill="white"/>
</mask>
<g mask="url(#mask6_5056_2798)">
<path d="M184.062 519.34L106.967 464.993L150.04 403.889L227.136 458.236L184.062 519.34Z" fill="white"/>
</g>
</g>
</g>
</g>
</g>
<rect x="0.5" y="0.5" width="389" height="843" rx="29.5" stroke="#E6E6E6"/>
<defs>
<clipPath id="clip0_5056_2798">
<rect width="390" height="844" rx="30" fill="white"/>
</clipPath>
<clipPath id="clip1_5056_2798">
<rect width="214" height="214" fill="white" transform="translate(88 315)"/>
</clipPath>
</defs>
</svg>
