<svg width="150" height="150" viewBox="0 0 150 150" fill="none" xmlns="http://www.w3.org/2000/svg">
<path d="M1.6499 1.6499H148.35V148.351H1.6499V1.6499Z" fill="#F0DB4F"/>
<path d="M136.344 113.362C135.27 106.67 130.905 101.048 117.979 95.8066C113.488 93.7429 108.482 92.2652 106.99 88.8621C106.46 86.8816 106.39 85.766 106.725 84.5671C107.687 80.6765 112.331 79.4636 116.012 80.5793C118.383 81.3738 120.627 83.2007 121.98 86.1152C128.311 82.016 128.298 82.0429 132.718 79.2257C131.1 76.7168 130.236 75.5589 129.177 74.4855C125.37 70.2328 120.182 68.0425 111.885 68.2101L107.563 68.7691C103.421 69.8156 99.4746 71.9894 97.1602 74.9039C90.2156 82.7836 92.1961 96.5742 100.646 102.25C108.971 108.498 121.201 109.919 122.763 115.762C124.283 122.916 117.506 125.231 110.77 124.409C105.806 123.376 103.045 120.853 100.061 116.265C94.5668 119.444 94.5668 119.444 88.9184 122.693C90.2578 125.621 91.6652 126.947 93.9106 129.484C104.537 140.263 131.129 139.733 135.899 123.418C136.092 122.858 137.377 119.122 136.344 113.362ZM81.4008 69.0738H67.6793L67.6231 104.549C67.6231 112.093 68.0133 119.01 66.7863 121.13C64.7789 125.299 59.577 124.782 57.2063 123.974C54.7934 122.788 53.5664 121.102 52.1449 118.718C51.7547 118.034 51.4617 117.504 51.3633 117.463L40.207 124.295C42.0621 128.102 44.7949 131.407 48.2953 133.554C53.5242 136.692 60.552 137.654 67.902 135.967C72.6856 134.573 76.8129 131.687 78.9738 127.294C82.098 121.534 81.4277 114.562 81.3996 106.852C81.4699 94.2714 81.4008 81.6937 81.4008 69.0738Z" fill="#323330"/>
</svg>
