<svg width="150" height="150" viewBox="0 0 150 150" fill="none" xmlns="http://www.w3.org/2000/svg">
<path d="M26.5629 1.875H123.437C138.125 1.875 150 13.7496 150 28.4379V121.562C150 136.25 138.125 148.125 123.437 148.125H26.5629C11.8746 148.125 0 136.25 0 121.562V28.4379C0 13.7496 11.8746 1.875 26.5629 1.875Z" fill="#001E36"/>
<path d="M53.7504 39.062C51.8754 39.062 50.0004 39.062 48.0633 39.1253C46.125 39.1874 44.3121 39.1874 42.6246 39.2507C40.9371 39.3128 39.375 39.3128 37.875 39.3749C36.4371 39.437 35.4375 39.437 34.3746 39.437C33.9375 39.437 33.75 39.6866 33.75 40.1249V104.437C33.75 105 33.9996 105.251 34.5 105.251H46.6254C47.0625 105.187 47.3754 104.812 47.3121 104.375V84.3128C48.4992 84.3128 49.3746 84.3128 50.0004 84.3749C50.625 84.437 51.6246 84.437 53.1246 84.437C58.2504 84.437 62.9379 83.8745 67.1871 82.3124C71.25 80.8124 74.7504 78.1874 77.25 74.687C79.7496 71.1878 81 66.7499 81 61.3745C81 58.562 80.5008 55.8749 79.5633 53.2499C78.5705 50.5752 77.0143 48.1453 75 46.1249C72.6233 43.8159 69.7622 42.0649 66.6246 40.9991C63.1242 39.6866 58.875 39.062 53.7504 39.062ZM55.1449 51.3726C57.3715 51.4147 59.5395 51.8038 61.5621 52.6241C63.375 53.312 64.875 54.5624 65.9379 56.1866C66.936 57.8671 67.4347 59.7971 67.3758 61.7507C67.3758 64.4999 66.75 66.6257 65.4375 68.1878C64.0617 69.7499 62.3121 70.9382 60.3129 71.5007C57.9996 72.2507 55.5621 72.6245 53.1246 72.6245H49.8117C49.0617 72.6245 48.2508 72.5624 47.3754 72.5003V51.5003C47.8125 51.437 48.6879 51.3749 49.9383 51.4382C51.1254 51.3749 52.5621 51.3749 54.1875 51.3749C54.5074 51.3667 54.8273 51.3655 55.1449 51.3726ZM107.563 54.5636C103.125 54.5636 99.4371 55.2503 96.5004 56.7503C93.8133 58.0007 91.5 59.9999 89.9379 62.4995C88.5633 64.8128 87.8121 67.3745 87.8121 70.0628C87.7585 72.2738 88.2525 74.4638 89.25 76.4378C90.4192 78.5395 92.0421 80.3542 94.0008 81.7499C96.7504 83.63 99.7338 85.1428 102.875 86.2499C105.938 87.437 108 88.3745 109.001 89.1866C110 89.9999 110.501 90.812 110.501 91.6874C110.501 92.8124 109.813 93.8753 108.813 94.3124C107.688 94.8749 106.001 95.1878 103.625 95.1878C101.126 95.1878 98.625 94.8749 96.2496 94.2503C93.5224 93.6405 90.9075 92.6073 88.5 91.1882C88.3125 91.0628 88.125 91.0007 87.9375 91.1261C87.75 91.2503 87.6879 91.4999 87.6879 91.6874V102.562C87.6258 103.063 87.9375 103.5 88.3758 103.75C90.4025 104.696 92.5464 105.369 94.7508 105.75C97.5633 106.312 100.375 106.562 103.249 106.562C107.749 106.562 111.5 105.875 114.563 104.563C117.375 103.438 119.812 101.501 121.562 98.9999C123.2 96.5411 124.05 93.6418 124 90.6878C124.061 88.4563 123.567 86.2445 122.563 84.2507C121.375 82.1249 119.687 80.3753 117.625 79.0628C114.607 77.1682 111.377 75.6365 108 74.4995C106.492 73.8757 105.011 73.1875 103.562 72.437C102.75 71.9999 102 71.4374 101.438 70.7495C101.062 70.2491 100.813 69.6878 100.813 69.1253C100.813 68.5628 101 67.9382 101.312 67.4378C101.75 66.8132 102.437 66.3749 103.249 66.1874C104.438 65.8757 105.75 65.687 106.999 65.7491C109.375 65.7491 111.687 66.062 114 66.5624C116.126 66.9995 118.125 67.6874 120 68.6882C120.25 68.8124 120.562 68.8124 121.125 68.6882C121.223 68.6161 121.302 68.5217 121.357 68.413C121.411 68.3042 121.439 68.184 121.438 68.0624V57.8753C121.438 57.6245 121.375 57.3749 121.312 57.1253C121.187 56.8757 120.937 56.6249 120.688 56.5628C118.964 55.8578 117.158 55.3746 115.313 55.1249C112.746 54.7512 110.156 54.5643 107.563 54.5636Z" fill="#31A8FF"/>
</svg>
