<svg width="150" height="150" viewBox="0 0 150 150" fill="none" xmlns="http://www.w3.org/2000/svg">
<g clip-path="url(#clip0_82_282)">
<path d="M53.3203 151.172C67.2656 151.172 78.5156 139.922 78.5156 125.977V100.781H53.3203C39.375 100.781 28.125 112.031 28.125 125.977C28.125 139.922 39.375 151.172 53.3203 151.172Z" fill="#0ACF83"/>
<path d="M28.125 75.5859C28.125 61.6406 39.375 50.3906 53.3203 50.3906H78.5156V100.781H53.3203C39.375 100.781 28.125 89.5312 28.125 75.5859Z" fill="#A259FF"/>
<path d="M28.125 25.1953C28.125 11.25 39.375 0 53.3203 0H78.5156V50.3906H53.3203C39.375 50.3906 28.125 39.1406 28.125 25.1953Z" fill="#F24E1E"/>
<path d="M78.5156 0H103.711C117.656 0 128.906 11.25 128.906 25.1953C128.906 39.1406 117.656 50.3906 103.711 50.3906H78.5156V0Z" fill="#FF7262"/>
<path d="M128.906 75.5859C128.906 89.5312 117.656 100.781 103.711 100.781C89.7656 100.781 78.5156 89.5312 78.5156 75.5859C78.5156 61.6406 89.7656 50.3906 103.711 50.3906C117.656 50.3906 128.906 61.6406 128.906 75.5859Z" fill="#1ABCFE"/>
</g>
<defs>
<clipPath id="clip0_82_282">
<rect width="150" height="150" fill="white"/>
</clipPath>
</defs>
</svg>
