<svg width="150" height="150" viewBox="0 0 150 150" fill="none" xmlns="http://www.w3.org/2000/svg">
<path d="M22.3091 133.448L10.5845 1.94629H139.416L127.678 133.428L74.9216 148.053L22.3091 133.448Z" fill="#E44D26"/>
<path d="M75 136.875L117.63 125.055L127.661 12.6982H75V136.875Z" fill="#F16529"/>
<path d="M75 61.4709H53.6578L52.1835 44.9545H75V28.8271H34.5574L34.9441 33.1537L38.9074 77.5994H75V61.4709ZM75 103.357L74.9285 103.377L56.9671 98.5256L55.8199 85.6643H39.6281L41.8875 110.987L74.9261 120.158L75 120.138V103.357Z" fill="#EBEBEB"/>
<path d="M74.9438 61.4709V77.5994H94.8036L92.9321 98.5162L74.9438 103.371V120.151L108.008 110.987L108.251 108.263L112.041 65.8021L112.433 61.4709H108.088H74.9438ZM74.9438 28.8271V44.9545H113.902L114.225 41.3311L114.961 33.1537L115.347 28.8271H74.9438Z" fill="white"/>
</svg>
