<svg width="150" height="150" viewBox="0 0 150 150" fill="none" xmlns="http://www.w3.org/2000/svg">
<g clip-path="url(#clip0_81_278)">
<path d="M74.3648 0.0424805C36.3771 0.0424832 38.7493 16.5808 38.7493 16.5808L38.7917 33.7144H75.0424V38.8587H24.393C24.393 38.8587 0.0847168 36.0911 0.0847168 74.5713C0.0847141 113.052 21.3015 111.687 21.3015 111.687H33.9639V93.8306C33.9639 93.8306 33.2813 72.5306 54.8419 72.5306H90.7962C90.7962 72.5306 110.997 72.8584 110.997 52.9312V19.982C110.997 19.982 114.064 0.0424805 74.3648 0.0424805ZM54.3761 11.5641C57.9828 11.564 60.8978 14.4905 60.8978 18.1114C60.8978 21.7322 57.9828 24.6587 54.3761 24.6587C50.7694 24.6587 47.8543 21.7322 47.8543 18.1114C47.8543 14.4905 50.7694 11.5641 54.3761 11.5641Z" fill="url(#paint0_linear_81_278)"/>
<path d="M75.4436 149.486C113.431 149.486 111.059 132.948 111.059 132.948L111.017 115.814H74.766V110.67H125.415C125.415 110.67 149.724 113.437 149.724 74.9571C149.724 36.4768 128.507 37.8414 128.507 37.8414H115.845V55.6977C115.845 55.6977 116.527 76.9978 94.9665 76.9978H59.0122C59.0122 76.9978 38.8118 76.67 38.8118 96.5972V129.546C38.8118 129.546 35.7448 149.486 75.4436 149.486ZM95.4323 137.964C91.8256 137.964 88.9106 135.038 88.9106 131.417C88.9106 127.796 91.8256 124.87 95.4323 124.87C99.039 124.87 101.954 127.796 101.954 131.417C101.954 135.038 99.039 137.964 95.4323 137.964Z" fill="url(#paint1_linear_81_278)"/>
</g>
<defs>
<linearGradient id="paint0_linear_81_278" x1="1438.14" y1="1344.25" x2="8882.44" y2="8685.49" gradientUnits="userSpaceOnUse">
<stop stop-color="#387EB8"/>
<stop offset="1" stop-color="#366994"/>
</linearGradient>
<linearGradient id="paint1_linear_81_278" x1="2161.28" y1="2335.51" x2="10154.2" y2="9861.96" gradientUnits="userSpaceOnUse">
<stop stop-color="#FFE052"/>
<stop offset="1" stop-color="#FFC331"/>
</linearGradient>
<clipPath id="clip0_81_278">
<rect width="150" height="150" fill="white"/>
</clipPath>
</defs>
</svg>
